<svg xmlns="http://www.w3.org/2000/svg" xmlns:xlink="http://www.w3.org/1999/xlink" width="100" height="100" viewBox="0 0 100 100">
  <defs>
    <clipPath id="clip-path">
      <rect id="Rectangle_981" data-name="Rectangle 981" width="50" height="49.984" fill="none"/>
    </clipPath>
    <clipPath id="clip-path-2">
      <rect id="Rectangle_980" data-name="Rectangle 980" width="50" height="49.984" transform="translate(0 0)" fill="none"/>
    </clipPath>
    <clipPath id="clip-path-3">
      <rect id="Rectangle_979" data-name="Rectangle 979" width="8.52" height="10.286" transform="translate(2.885 22.293)" fill="#007699"/>
    </clipPath>
  </defs>
  <g id="Allergies" transform="translate(-363 -1781)">
    <circle id="Ellipse_1" data-name="Ellipse 1" cx="50" cy="50" r="50" transform="translate(363 1781)" fill="#e6f3f4"/>
    <g id="Group_1393" data-name="Group 1393" transform="translate(388 1806)">
      <g id="Group_1392" data-name="Group 1392" clip-path="url(#clip-path)">
        <g id="Group_1391" data-name="Group 1391">
          <g id="Group_1390" data-name="Group 1390" clip-path="url(#clip-path-2)">
            <path id="Path_1341" data-name="Path 1341" d="M20.3,49.985c-.664-.051-1.326-.1-1.99-.152a37.5,37.5,0,0,1-6.169-1.163,25.725,25.725,0,0,0-6.756-.832c-1.611.038-3.224.008-4.836.008H0V27.815c.748,0,1.491-.024,2.232.01a.605.605,0,0,0,.74-.523,7.455,7.455,0,0,1,1.992-3.029c.657-.675,1.371-1.3,2.1-1.979,1.741,1.5,3.476,2.947,4.239,5.2.045.132.239.216.368.317.02.016.063,0,.1,0a6.856,6.856,0,0,0,2.417-.07c.694-.283,1.2-1.059,1.759-1.641a21.094,21.094,0,0,1,5.169-3.966,30.379,30.379,0,0,0,6.358-4.986c.852-.8,1.714-1.594,2.6-2.422,1.512,1.476,3.222,2.754,3.536,5.046a5.866,5.866,0,0,1-1.488,4.96c-.456.5-.932.991-1.5,1.585h.619q5.958,0,11.919,0a4.006,4.006,0,0,1,4.119,3.118,11.229,11.229,0,0,1,.023,2.243c.342.206.763.419,1.139.694A4.47,4.47,0,0,1,50,34.84v1.368a4.5,4.5,0,0,1-1.74,2.65,4.164,4.164,0,0,1-3.654,5.975c.012.126.016.253.035.377a4.061,4.061,0,0,1-2.929,4.567c-.326.09-.663.139-1,.208ZM30,18.818c-.382.352-.772.7-1.144,1.06a31.226,31.226,0,0,1-6.929,5.2,9.82,9.82,0,0,0-1.96,1.358c-1.414,1.3-2.757,2.672-4.15,3.993a1.231,1.231,0,0,1-.75.315c-1.3.032-2.605.026-3.907.008a1.033,1.033,0,0,0-.877.38A4.235,4.235,0,0,1,3.875,31.1a.792.792,0,0,0-.939-.3V44.911c.521,0,1.009.019,1.494,0a31.072,31.072,0,0,1,9.45,1.157,23.189,23.189,0,0,0,5.913.9q10.358.028,20.711.017a1.924,1.924,0,0,0,.34-.022,1.128,1.128,0,0,0,.913-1.011,1.084,1.084,0,0,0-.724-1.1,2.578,2.578,0,0,0-.725-.069q-3.93-.008-7.864,0c-.187,0-.376-.018-.595-.029,0-.839.026-1.62-.01-2.4-.019-.434.114-.547.545-.545,3.924.016,7.848.01,11.772.009a4.975,4.975,0,0,0,.586-.019,1.088,1.088,0,0,0,.979-1.228c-.062-.6-.518-.951-1.255-.952q-6.008,0-12.016,0h-.575V36.642H45.508a5.437,5.437,0,0,0,.585-.02,1.035,1.035,0,0,0,.942-.858.956.956,0,0,0-.495-1.118,1.913,1.913,0,0,0-.879-.2q-6.6-.018-13.189-.009H31.89V31.49h.62q5.2,0,10.406,0a3.757,3.757,0,0,0,.678-.052,1.043,1.043,0,0,0,.867-1.03c.018-.695-.5-1.144-1.335-1.145H23.745c.493-.517.885-.929,1.277-1.339,1.631-1.708,3.27-3.407,4.888-5.125A2.872,2.872,0,0,0,30,18.818m-22.909,7.4c-.447.611-.845,1.1-1.183,1.629a1.1,1.1,0,0,0,.31,1.463,1.368,1.368,0,0,0,1.744,0,1.106,1.106,0,0,0,.315-1.463c-.337-.528-.735-1.016-1.186-1.63" fill="#34aba4"/>
            <path id="Path_1342" data-name="Path 1342" d="M27.17,13.663l-1.3-1.438c-.208.2-.338.316-.462.44-1.624,1.622-3.24,3.253-4.879,4.86a1.51,1.51,0,0,1-.8.383c-1.351.2-2.709.341-4.062.526a.95.95,0,0,0-.488.271c-.593.581-1.167,1.18-1.706,1.729l-2.11-2.1c.5-.5,1.088-1.051,1.635-1.643a1.494,1.494,0,0,0,.362-.745c.194-1.319.335-2.645.529-3.963a1.347,1.347,0,0,1,.361-.7Q16.667,8.822,19.118,6.4a3.161,3.161,0,0,1,.535-.335l-1.543-1.4L20.284,2.5,21.443,3.83c.817-.5,1.561-.9,2.232-1.39a18.068,18.068,0,0,0,1.373-1.315,3.857,3.857,0,0,1,4.113-.87A3.964,3.964,0,0,1,30.81,6.588c-.161.183-.334.357-.509.526a5.9,5.9,0,0,0-1.33,1.717,8.736,8.736,0,0,1-1.032,1.394L29.315,11.5l-2.145,2.16m-10.736,1.7c.671-.086,1.259-.194,1.852-.226a1.379,1.379,0,0,0,.964-.473q1.761-1.789,3.549-3.552c.3-.3.629-.556.9-.793l-2.15-2.155a.3.3,0,0,0-.081.054q-2.277,2.273-4.551,4.548a.586.586,0,0,0-.187.276c-.1.748-.193,1.5-.3,2.321m9.44-7.285c.2-.264.543-.529.616-.855a2.988,2.988,0,0,1,1-1.447c.344-.346.7-.681,1.029-1.04a1.032,1.032,0,1,0-1.472-1.446c-.413.39-.815.794-1.208,1.2a2.564,2.564,0,0,1-1.193.777,3.437,3.437,0,0,0-.935.646l2.165,2.161" fill="#007699"/>
            <rect id="Rectangle_977" data-name="Rectangle 977" width="3.046" height="2.896" transform="translate(5.586 39.323)" fill="#34aba4"/>
            <rect id="Rectangle_978" data-name="Rectangle 978" width="3.049" height="2.901" transform="translate(12.209 39.313)" fill="#34aba4"/>
            <path id="Path_1343" data-name="Path 1343" d="M15.287,33.626c0,.9.009,1.775-.014,2.646,0,.093-.19.256-.3.258-.907.021-1.815.012-2.759.012V33.626Z" fill="#34aba4"/>
            <g id="Group_1389" data-name="Group 1389">
              <g id="Group_1388" data-name="Group 1388">
                <g id="Group_1387" data-name="Group 1387" clip-path="url(#clip-path-3)">
                  <path id="Path_1344" data-name="Path 1344" d="M11.211,27.239c-.8-2.353-4.146-4.945-4.146-4.945s-3.311,2.663-3.938,4.56a4.247,4.247,0,1,0,8.084.385m-4.12,2.383a1.307,1.307,0,0,1-1.327-1.414,8.88,8.88,0,0,1,1.327-1.992,19.08,19.08,0,0,1,1.261,1.746,1.255,1.255,0,0,1-1.261,1.66" fill="#007699"/>
                </g>
              </g>
            </g>
          </g>
        </g>
      </g>
    </g>
  </g>
</svg>
