<svg xmlns="http://www.w3.org/2000/svg" xmlns:xlink="http://www.w3.org/1999/xlink" width="100" height="100" viewBox="0 0 100 100">
  <defs>
    <clipPath id="clip-path">
      <rect id="Rectangle_956" data-name="Rectangle 956" width="50" height="49.996" transform="translate(0 0)" fill="#34aba4"/>
    </clipPath>
  </defs>
  <g id="Detox_weightloss" data-name="Detox &amp; weightloss" transform="translate(-1457 -1781)">
    <circle id="Ellipse_3" data-name="Ellipse 3" cx="50" cy="50" r="50" transform="translate(1457 1781)" fill="#e6f3f4"/>
    <g id="Group_1367" data-name="Group 1367" transform="translate(1482 1806.002)">
      <g id="Group_1366" data-name="Group 1366" clip-path="url(#clip-path)">
        <path id="Path_1316" data-name="Path 1316" d="M49.991,49.995H0V6.254A.826.826,0,0,1,.081,6.2,53.712,53.712,0,0,1,20.686.184a51.948,51.948,0,0,1,11.77.342A53.856,53.856,0,0,1,49.481,5.965.808.808,0,0,1,50,6.812q-.02,21.591-.009,43.183M47.035,47.05v-32.3h-8.8v5.808H11.73v-5.8H2.958V47.05ZM11.745,11.732V7.582c.152-.052.27-.1.394-.134A50.053,50.053,0,0,1,23.758,5.929a65.24,65.24,0,0,1,7.251.347c2.285.246,4.539.766,6.808,1.159.328.057.45.2.439.551-.028.91-.009,1.822-.009,2.733v1h8.816c0-1.174.009-2.311-.014-3.447,0-.123-.174-.29-.306-.354A50.216,50.216,0,0,0,28.11,3.037,48.852,48.852,0,0,0,17.6,3.5a52.429,52.429,0,0,0-13.5,3.973c-.908.4-1.348.845-1.2,1.88a17.086,17.086,0,0,1,.022,2.375ZM20.9,13l.4-.228a6.963,6.963,0,0,1,4.925-.894,7.243,7.243,0,0,1,5.9,5.418c.039.132.17.334.262.336.951.025,1.9.015,2.855.015V9.879a50.806,50.806,0,0,0-20.486.007v7.761c.96,0,1.883.008,2.807-.011.1,0,.242-.144.286-.253.313-.775.6-1.559.96-2.487L17.061,13.2l2.073-2.079L20.9,13m8.213,4.625a4.379,4.379,0,0,0-4.735-2.874c-1.576.19-3.342,1.668-3.428,2.874Z" fill="#34aba4"/>
        <path id="Path_1317" data-name="Path 1317" d="M24.971,43.33c-1.214-1.215-2.4-2.4-3.58-3.586-1.15-1.151-2.309-2.293-3.443-3.459a1.118,1.118,0,0,1-.288-.669c-.036-.744-.013-1.491-.013-2.3h2.929V24.551h8.8V33.3h2.959c0,.9.008,1.742-.008,2.582a.563.563,0,0,1-.192.32q-3.48,3.492-6.97,6.974a2.362,2.362,0,0,1-.2.152m2.856-7.058H26.46v-8.8H23.507v8.8H22.266l2.767,2.782,2.794-2.79" fill="#007699"/>
      </g>
    </g>
  </g>
</svg>
