<svg xmlns="http://www.w3.org/2000/svg" xmlns:xlink="http://www.w3.org/1999/xlink" width="100" height="100" viewBox="0 0 100 100">
  <defs>
    <clipPath id="clip-path">
      <rect id="Rectangle_991" data-name="Rectangle 991" width="44.68" height="50" fill="#34aba4"/>
    </clipPath>
  </defs>
  <g id="Gut_health" data-name="Gut health" transform="translate(-290 -2162)">
    <circle id="Ellipse_4" data-name="Ellipse 4" cx="50" cy="50" r="50" transform="translate(290 2162)" fill="#e6f3f4"/>
    <g id="Group_1410" data-name="Group 1410" transform="translate(318 2187)">
      <g id="Group_1409" data-name="Group 1409" clip-path="url(#clip-path)">
        <path id="Path_1358" data-name="Path 1358" d="M21.838,50c0-1.531-.019-3.062,0-4.592.006-.461-.138-.625-.615-.622-1.334.007-2.672.022-4-.07a8.783,8.783,0,0,1-4.252-15.909c.051-.039.1-.082.188-.154-.208-.167-.407-.317-.6-.479a8.457,8.457,0,0,1-2.993-9.052,8.43,8.43,0,0,1,6.955-6.455,8.913,8.913,0,0,1,1.7-.156c2.052-.018,4.1-.007,6.156-.007h.616c-.119-.152-.186-.25-.265-.337a10.4,10.4,0,0,1-2.892-7.2c-.008-1.643,0-3.287,0-4.966H32.1V1.74c0,.945.024,1.89-.01,2.834-.018.488.173.61.625.609,1.318,0,2.641-.034,3.954.062A8.654,8.654,0,0,1,44.4,11.926a8.612,8.612,0,0,1-3.348,9.157c-.089.07-.174.144-.231.192a21.46,21.46,0,0,1,1.742,1.706,8.411,8.411,0,0,1,1.55,8.642,8.435,8.435,0,0,1-6.71,5.669,10.674,10.674,0,0,1-1.941.167c-1.97.021-3.941.007-5.911.007h-.61c.121.158.187.258.267.345a10.576,10.576,0,0,1,2.894,7.5c-.012,1.563,0,3.127,0,4.69ZM16.611,22.807V19.834h.657q9.039,0,18.078,0a9.631,9.631,0,0,0,1.317-.046,5.847,5.847,0,0,0-.808-11.638c-1.058-.005-2.117-.017-3.176,0a3.3,3.3,0,0,1-3.527-3.543c.038-.561.006-1.126.006-1.688H24.852a28.449,28.449,0,0,0,.016,3.038,7.518,7.518,0,0,0,7.113,6.524c1.595.044,3.192.016,4.788.023.172,0,.344.016.523.025v2.947h-.617c-6.221,0-12.443-.014-18.664.008A5.515,5.515,0,0,0,12.95,18.5a5.513,5.513,0,0,0,.131,5.848,5.767,5.767,0,0,0,5.29,2.816c6.091-.016,12.182-.005,18.273-.005h.639v2.973h-.63q-9.186,0-18.371,0a7.607,7.607,0,0,0-1.025.035,5.848,5.848,0,0,0,.6,11.635c1.139.033,2.279.012,3.419.015a3.268,3.268,0,0,1,3.49,3.475c0,.579,0,1.159,0,1.747h4.387c0-.737.024-1.45,0-2.16a7.6,7.6,0,0,0-7.7-7.418q-2.151,0-4.3,0h-.544V34.493h.653q9.063,0,18.127-.005a8.516,8.516,0,0,0,1.7-.132,5.84,5.84,0,0,0-1.275-11.548q-9.26-.006-18.518,0h-.683" fill="#34aba4"/>
        <path id="Path_1359" data-name="Path 1359" d="M10.885,7.811c-.387-1.946-.761-3.823-1.147-5.762l2.878-.583c.2.956.389,1.883.592,2.865l2.866-.554c.38,1.905.76,3.8,1.15,5.759l-2.884.572c-.17-.829-.36-1.633-.491-2.446-.058-.362-.2-.421-.517-.351-.791.172-1.586.325-2.447.5" fill="#007699"/>
        <path id="Path_1360" data-name="Path 1360" d="M10.458,12.278l-2,2.16L6.306,12.461l-2,2.14L0,10.617c.672-.73,1.319-1.431,1.994-2.163L4.15,10.433,6.144,8.291l4.314,3.987" fill="#007699"/>
      </g>
    </g>
  </g>
</svg>
