<svg id="shop" xmlns="http://www.w3.org/2000/svg" width="102" height="102" viewBox="0 0 102 102">
  <rect id="Rectangle_912" data-name="Rectangle 912" width="100" height="60" rx="30" transform="translate(1 24)" fill="#d9eee6"/>
  <rect id="Rectangle_1185" data-name="Rectangle 1185" width="102" height="102" fill="none"/>
  <g id="Group_1563" data-name="Group 1563" transform="translate(11 22.552)">
    <path id="Path_1465" data-name="Path 1465" d="M70,7.114a6.8,6.8,0,0,0-7.077-7.1q-10.7,0-21.4,0h-.043C33,0,13.573-.016,6.767.023a6.522,6.522,0,0,0-6.1,3.894A16.258,16.258,0,0,0,0,5.749V46.218c.039.053.1.1.114.159a6.969,6.969,0,0,0,7.133,5.606c5.969-.1,11.94-.025,17.91-.025h.781a2.851,2.851,0,0,1,.044.292c0,1.3.017,2.6,0,3.9a3.915,3.915,0,0,1-3.289,3.882,34.169,34.169,0,0,1-3.951.136,1.358,1.358,0,0,0-1.509,1.387,1.343,1.343,0,0,0,1.484,1.342q16.269,0,32.538,0a1.349,1.349,0,0,0,1.517-1.377c-.007-.829-.592-1.344-1.545-1.349-1.025-.005-2.051.015-3.076-.006a4.106,4.106,0,0,1-4.132-4.188c-.006-1.116,0-2.233,0-3.349v-.667H62.859A6.806,6.806,0,0,0,70,44.847q0-18.865,0-37.733M2.732,37.455q0-15.074,0-30.146c0-2.894,1.685-4.57,4.591-4.571,6.6,0,25.678,0,34.066,0q10.664,0,21.328,0A4.172,4.172,0,0,1,67.269,7.28q0,15.106,0,30.214v.73H2.732ZM27.389,60.134c1.94-2.479,1.164-5.346,1.377-8.119H41.223c.269,2.68-.583,5.576,1.407,8.119Zm39.66-13.877a3.883,3.883,0,0,1-3.809,2.967c-.2.009-.41.005-.615.005H7.4c-3.03,0-4.669-1.65-4.669-4.7V41.041H67.346a44.988,44.988,0,0,1-.3,5.216" fill="#007699" stroke="#007699" stroke-width="1"/>
    <path id="Path_1466" data-name="Path 1466" d="M38.465,28.294c-1.54,0-3.019,0-4.5,0-.156,0-.314.016-.548.03a4.819,4.819,0,0,1,.31,4.112,4.651,4.651,0,0,1-7.309,1.869c-1.736-1.469-2.1-3.5-1.039-6.03-.959-.2-1.105-1-1.279-1.794q-1.926-8.753-3.864-17.5c-.044-.2-.109-.39-.176-.628-1.239,0-2.467,0-3.695,0-1.029,0-1.6-.486-1.607-1.346s.571-1.383,1.576-1.386q2.323-.009,4.648,0a1.387,1.387,0,0,1,1.594,1.245c.215.883.44,1.766.6,2.66.081.468.285.574.724.57,2.187-.02,4.374-.009,6.562-.009,6.083,0,12.166-.01,18.249.019a2.322,2.322,0,0,1,1.413.463,1.534,1.534,0,0,1,.329,1.228c-.631,3.65-1.317,7.291-1.99,10.934-.243,1.319-.5,2.635-.739,3.954-.184,1-.253,1.114-1.175,1.661a4.777,4.777,0,0,1,.412,3.8,4.654,4.654,0,0,1-7.223,2.316c-1.859-1.416-2.283-3.386-1.27-6.165M23.923,12.876c.9,4.062,1.8,8.047,2.657,12.04.113.526.338.628.819.627q8.536-.021,17.073,0c.51,0,.709-.148.8-.655.466-2.638.972-5.269,1.459-7.9.25-1.355.489-2.712.742-4.11Zm5.45,15.969a1.892,1.892,0,1,0,1.932,1.882,1.922,1.922,0,0,0-1.932-1.882m13.18,3.783a1.892,1.892,0,1,0-1.941-1.881,1.926,1.926,0,0,0,1.941,1.881" fill="#007699" stroke="#007699" stroke-width="1"/>
    <path id="Path_1467" data-name="Path 1467" d="M35,46.488a1.363,1.363,0,1,1,1.363-1.381A1.345,1.345,0,0,1,35,46.488" fill="#007699" stroke="#007699" stroke-width="1"/>
  </g>
</svg>
