<svg xmlns="http://www.w3.org/2000/svg" xmlns:xlink="http://www.w3.org/1999/xlink" width="100" height="100" viewBox="0 0 100 100">
  <defs>
    <clipPath id="clip-path">
      <rect id="Rectangle_960" data-name="Rectangle 960" width="44.142" height="50" fill="#34aba4"/>
    </clipPath>
  </defs>
  <g id="Immunity" transform="translate(-363 -1781)">
    <circle id="Ellipse_1" data-name="Ellipse 1" cx="50" cy="50" r="50" transform="translate(363 1781)" fill="#e6f3f4"/>
    <g id="Group_1371" data-name="Group 1371" transform="translate(390.929 1806)">
      <g id="Group_1370" data-name="Group 1370" clip-path="url(#clip-path)">
        <path id="Path_1319" data-name="Path 1319" d="M21.971,50c-1.221-.74-2.448-1.47-3.662-2.221-2.158-1.333-4.412-2.539-6.44-4.047A29.088,29.088,0,0,1,.87,26.88a30.134,30.134,0,0,1-.862-7.2C-.007,15.916,0,12.154,0,8.391c0-.144.013-.288.023-.519A7.188,7.188,0,0,0,5.834,5.889,7.092,7.092,0,0,0,7.679,0H36.445a7.156,7.156,0,0,0,1.824,5.854,7.187,7.187,0,0,0,5.839,2.017c.01.222.024.395.024.569,0,3.7.024,7.394,0,11.091a30.286,30.286,0,0,1-7.515,20.22A29.492,29.492,0,0,1,28.857,46c-2.1,1.2-4.174,2.461-6.258,3.7-.15.089-.289.2-.433.3ZM10.543,2.9c-.038.136-.075.26-.106.385a9.313,9.313,0,0,1-7.026,7.22.5.5,0,0,0-.448.592q.022,4.251.007,8.5a26.848,26.848,0,0,0,.717,6.385,26.029,26.029,0,0,0,10.356,15.69c2.487,1.763,5.2,3.206,7.823,4.777a.616.616,0,0,0,.51-.056c1.505-.872,2.984-1.793,4.5-2.641a27.4,27.4,0,0,0,8.809-7.52,26.65,26.65,0,0,0,5.41-14.8c.178-3.46.052-6.936.076-10.405,0-.328-.117-.442-.419-.516A9.189,9.189,0,0,1,34.421,5.38,24.254,24.254,0,0,1,33.528,2.9Z" fill="#34aba4"/>
        <path id="Path_1320" data-name="Path 1320" d="M22.056,10.112A12.808,12.808,0,1,1,9.265,22.953,12.79,12.79,0,0,1,22.056,10.112m.019,2.937a9.874,9.874,0,1,0,9.868,9.886,9.892,9.892,0,0,0-9.868-9.886" fill="#007699"/>
        <path id="Path_1321" data-name="Path 1321" d="M15.9,24.406V21.469h4.695v-4.73h2.931v4.715h4.706v2.905H23.547v4.72H20.622V24.406Z" fill="#007699"/>
      </g>
    </g>
  </g>
</svg>
