<svg id="dispensary" xmlns="http://www.w3.org/2000/svg" xmlns:xlink="http://www.w3.org/1999/xlink" width="102" height="102" viewBox="0 0 102 102">
  <defs>
    <clipPath id="clip-path">
      <rect id="Rectangle_915" data-name="Rectangle 915" width="69.972" height="70" fill="#007699"/>
    </clipPath>
  </defs>
  <rect id="Rectangle_913" data-name="Rectangle 913" width="100" height="60" rx="30" transform="translate(1 24)" fill="#d9eee6"/>
  <g id="Group_1283" data-name="Group 1283" transform="translate(11.014 17)">
    <g id="Group_1282" data-name="Group 1282" clip-path="url(#clip-path)">
      <path id="Path_1270" data-name="Path 1270" d="M20.159,53.055c0,1.567-.015,3.074.016,4.579a.862.862,0,0,0,.355.628q6.156,3.547,12.334,7.052a3.259,3.259,0,0,0,.344.14V64.6q0-8.487,0-16.975A1.781,1.781,0,1,1,36.76,47.6q.009,6.783,0,13.565v4.3c.265-.128.46-.21.643-.314,3.944-2.25,7.88-4.513,11.835-6.742a1.014,1.014,0,0,0,.581-1.041q-.02-11.377-.007-22.756a1.777,1.777,0,0,1,1.718-1.994,1.757,1.757,0,0,1,1.828,1.66c.017.246.006.494.006.741q0,11.157-.013,22.312a1.071,1.071,0,0,0,.635,1.089c3.695,2.084,7.372,4.2,11.054,6.307,1.038.594,1.376.409,1.376-.767q0-20.421.016-40.843a1.406,1.406,0,0,0-.832-1.4c-2.583-1.447-5.159-2.908-7.7-4.419a2.777,2.777,0,0,1-1.079-1.222,1.542,1.542,0,0,1,.565-1.851,1.7,1.7,0,0,1,2.011-.157Q63.708,16.518,68,19a3.846,3.846,0,0,1,1.87,2.639,5.481,5.481,0,0,1,.1,1.1q.007,20.792,0,41.584a4.143,4.143,0,0,1-6.4,3.687Q58,64.851,52.458,61.645a1.461,1.461,0,0,0-1.685-.017c-4.437,2.576-8.907,5.094-13.35,7.66a4.523,4.523,0,0,1-4.892-.014c-4.462-2.585-8.954-5.118-13.418-7.7a1.3,1.3,0,0,0-1.491.008q-5.6,3.246-11.238,6.434A4.094,4.094,0,0,1,.636,66.693,4.4,4.4,0,0,1,.027,64.6Q-.024,43.514.008,22.426A3.717,3.717,0,0,1,1.87,19.082C4.8,17.344,7.76,15.667,10.728,14a1.742,1.742,0,0,1,2.427.679,1.772,1.772,0,0,1-.776,2.469q-4,2.323-8.03,4.59a1.4,1.4,0,0,0-.81,1.408q.03,20.384.015,40.769c0,1.252.3,1.429,1.393.806,3.706-2.118,7.406-4.245,11.12-6.349a.892.892,0,0,0,.549-.911C16.583,56,16.6,54.546,16.6,53.052a7.078,7.078,0,0,1-3.371-2.3,6.51,6.51,0,0,1,2.7-10.047.891.891,0,0,0,.689-1c-.04-1.7-.019-3.41-.012-5.114a1.786,1.786,0,1,1,3.551.025q.008,2.631,0,5.263c0,.336.02.556.427.722A6.462,6.462,0,0,1,24.9,46.943a6.532,6.532,0,0,1-4.428,5.983c-.091.036-.181.074-.313.129m-1.814-9.268a2.978,2.978,0,0,0-2.929,3,2.964,2.964,0,0,0,5.927-.069,2.98,2.98,0,0,0-3-2.93" fill="#007699"/>
      <path id="Path_1271" data-name="Path 1271" d="M34.945,0a18.5,18.5,0,0,1,18.2,15.761c1.044,7.668-1.793,13.826-8.2,18.17a17.488,17.488,0,0,0-6.338,6.658,3.806,3.806,0,0,1-3.758,2.17A3.864,3.864,0,0,1,31.3,40.5a15.932,15.932,0,0,0-5.991-6.377c-6.668-4.3-9.624-10.558-8.457-18.358C18.008,8.016,22.679,2.993,30.217.779A37.591,37.591,0,0,1,34.945,0m.014,3.7c-.687.062-1.377.1-2.061.189A14.642,14.642,0,0,0,20.176,18.264a14.677,14.677,0,0,0,7.252,13.025,20.35,20.35,0,0,1,3.879,3.051,38.349,38.349,0,0,1,2.962,4.127c.2.279.466.618.756.682.169.037.489-.389.665-.657.324-.494.573-1.036.886-1.537a21.164,21.164,0,0,1,6.481-6.069,14.225,14.225,0,0,0,6.552-14.539A14.711,14.711,0,0,0,34.959,3.7" fill="#007699"/>
      <path id="Path_1272" data-name="Path 1272" d="M58.711,48.516a1.775,1.775,0,0,1,3.549,0,1.775,1.775,0,1,1-3.549,0" fill="#007699"/>
      <path id="Path_1273" data-name="Path 1273" d="M62.26,40.221a1.775,1.775,0,1,1-3.549-.036,1.775,1.775,0,0,1,3.549.036" fill="#007699"/>
      <path id="Path_1274" data-name="Path 1274" d="M35.015,25.912a7.724,7.724,0,1,1,7.676-7.84,7.715,7.715,0,0,1-7.676,7.84m-.065-3.6a4.121,4.121,0,1,0-4.115-4.17,4.149,4.149,0,0,0,4.115,4.17" fill="#007699"/>
    </g>
  </g>
  <rect id="Rectangle_1186" data-name="Rectangle 1186" width="102" height="102" fill="none"/>
</svg>
