<svg id="consultation" xmlns="http://www.w3.org/2000/svg" width="102" height="102" viewBox="0 0 102 102">
  <g id="Group_1543" data-name="Group 1543" transform="translate(-199 -982.501)">
    <rect id="Rectangle_907" data-name="Rectangle 907" width="100" height="60" rx="30" transform="translate(200 1006.001)" fill="#d9eee6"/>
    <g id="Group_1270" data-name="Group 1270" transform="translate(200 1000)">
      <path id="Path_1248" data-name="Path 1248" d="M80,60.152c-.209.52-.379,1.061-.633,1.557a5.438,5.438,0,0,1-5.195,3.3q-34.216-.044-68.429.023A6.029,6.029,0,0,1,.015,58.676,1.217,1.217,0,0,1,1.384,57.5c1.8-.009,3.593,0,5.391,0h.735V16.592A3.728,3.728,0,0,1,11.56,12.5q3.75,0,7.5,0c1.019,0,1.549.417,1.565,1.217.016.832-.531,1.273-1.589,1.275-2.473,0-4.948,0-7.421,0-1.168,0-1.609.436-1.609,1.6q0,19.646,0,39.293c0,1.167.439,1.6,1.6,1.611.26,0,.52,0,.907,0,0-.373.008-.725,0-1.075a25.7,25.7,0,0,1,1.2-9.54A22.646,22.646,0,0,1,28.349,32.3c.163-.056.321-.128.552-.221-.595-.465-1.167-.863-1.679-1.324a11.659,11.659,0,0,1-4.084-8.941c-.023-5.1-.009-10.207,0-15.311a6.432,6.432,0,0,1,6.479-6.5Q35,0,40.393.005a6.431,6.431,0,0,1,6.48,6.5c.007,4.973-.007,9.947,0,14.92a11.921,11.921,0,0,1-5.32,10.295c-.12.084-.228.184-.435.353A22.771,22.771,0,0,1,54,41.716c3.095,4.8,3.855,10.125,3.433,15.737.351.02.576.043.8.044q5.038,0,10.077,0C69.585,57.5,70,57.084,70,55.82q0-10.742,0-21.481c0-.235-.015-.471.008-.7a1.244,1.244,0,0,1,2.48.028c.017.207.005.416.005.625q0,10.78,0,21.56c0,.516-.047,1.032-.077,1.649h2.889c.989,0,1.981.037,2.968-.012A1.75,1.75,0,0,1,80,58.277ZM15.052,57.443H54.959c.663-10.572-3.687-17.34-9.9-20.807.329,1.56.691,3.123.976,4.7a1.1,1.1,0,0,0,.74,1.012,4.561,4.561,0,0,1,2.736,5.148,4.722,4.722,0,0,1-4.437,3.727A4.675,4.675,0,0,1,40.477,47.7a4.627,4.627,0,0,1,2.46-5.292c.224-.111.451-.216.669-.321a22.988,22.988,0,0,0-1.764-6.572,1.522,1.522,0,0,0-.759-.783,18.911,18.911,0,0,0-10.149-.519.9.9,0,0,0-.583.417c-.683,1.811-1.327,3.637-1.989,5.48.407.167.648.255.879.363a5.044,5.044,0,0,1,3.205,4.375c.159,2.985.06,5.985.041,8.979,0,.715-.529,1.129-1.3,1.161-1.639.068-2.261-.177-2.408-.983a1.2,1.2,0,0,1,.583-1.336A5.068,5.068,0,0,1,30,52.4c0-2.327.04-4.644-.013-6.959a3.117,3.117,0,0,0-6.225.012c-.045,2.315-.011,4.632-.011,6.952a1.873,1.873,0,0,0,.223.1,1.23,1.23,0,0,1,1.009,1.443c-.075.664-.6,1.032-1.415,1.045-.235,0-.468,0-.7,0-1.228-.005-1.609-.393-1.611-1.645q0-3.826,0-7.653a5.447,5.447,0,0,1,4.151-5.535c.183-.053.457-.151.5-.285.443-1.448.847-2.908,1.276-4.413-6.681,2.9-13.092,10.187-12.132,21.981m10.5-42.432c.08,2.819-.039,5.589.283,8.308a9.507,9.507,0,0,0,9.208,7.925A9.249,9.249,0,0,0,44,23.921c.495-2.863.264-5.851.352-8.783,0-.037-.064-.076-.109-.128Zm-22.817,45a3.022,3.022,0,0,0,2.9,2.483q34.372,0,68.743,0a2.89,2.89,0,0,0,2.853-2.483ZM44.376,12.475c0-2.129.064-4.184-.019-6.232a3.919,3.919,0,0,0-3.887-3.735q-5.464-.052-10.928,0a3.846,3.846,0,0,0-3.775,3.121,13.35,13.35,0,0,0-.136,2.4c-.019,1.472-.005,2.945-.005,4.443ZM44.987,44.5a2.079,2.079,0,1,0,2.092,2.039A2.025,2.025,0,0,0,44.987,44.5" transform="translate(0 0.001)" fill="#007699" stroke="#007699" stroke-linecap="round" stroke-width="0.8"/>
      <path id="Path_1249" data-name="Path 1249" d="M68.122,25.786A3.97,3.97,0,0,1,65.3,28.634a4.34,4.34,0,0,1-1,.112q-13.542.01-27.084.013c-.728,0-1.307-.18-1.524-.921-.208-.712.177-1.173.752-1.548a9,9,0,0,0,4-7.479c.207-3.683.147-7.383.183-11.075a3.733,3.733,0,0,1,4.007-3.977c6.3,0,12.593.053,18.888-.028,2.3-.029,3.849.793,4.6,2.993Zm-27.807.436c.257.016.4.035.549.035q11.6,0,23.192,0c1.095,0,1.565-.476,1.567-1.577q.008-8.394,0-16.789c0-1.189-.456-1.632-1.668-1.633q-9.566,0-19.132,0c-1.261,0-1.7.432-1.7,1.679-.005,2.968.019,5.935-.015,8.9a25.713,25.713,0,0,1-.244,3.184,12.761,12.761,0,0,1-2.549,6.2" transform="translate(11.878 1.244)" fill="#007699" stroke="#007699" stroke-linecap="round" stroke-width="0.8"/>
      <path id="Path_1250" data-name="Path 1250" d="M25.718,7.675c-1.3-.067-1.809-.436-1.8-1.281S24.4,5.209,25.557,5.13A11.8,11.8,0,0,1,26.3,3.541c.116-.179.509-.243.777-.247.8-.008,1.107.444,1.263,1.78,1.415.224,1.863.573,1.812,1.411-.048.788-.527,1.113-1.641,1.189a11.806,11.806,0,0,1-.747,1.589c-.116.179-.509.243-.776.247-.795.008-1.1-.451-1.269-1.835" transform="translate(7.971 1.098)" fill="#007699" stroke="#007699" stroke-linecap="round" stroke-width="0.8"/>
      <path id="Path_1251" data-name="Path 1251" d="M51.209,11.871c-1.588,0-3.177.005-4.765,0-.923,0-1.449-.479-1.439-1.265.011-.753.529-1.221,1.4-1.223q4.844-.01,9.687,0a1.228,1.228,0,0,1,1.4,1.224c.011.784-.521,1.26-1.441,1.265-1.613.007-3.228,0-4.843,0" transform="translate(15.002 3.126)" fill="#007699" stroke="#007699" stroke-linecap="round" stroke-width="0.8"/>
      <path id="Path_1252" data-name="Path 1252" d="M50.036,15c1.172,0,2.344-.005,3.515,0,.921.007,1.453.479,1.443,1.263a1.23,1.23,0,0,1-1.4,1.227q-3.594.012-7.187,0c-.872,0-1.391-.471-1.4-1.223-.012-.788.515-1.26,1.437-1.267,1.2-.007,2.4,0,3.593,0" transform="translate(15.002 5.001)" fill="#007699" stroke="#007699" stroke-linecap="round" stroke-width="0.8"/>
    </g>
  </g>
  <rect id="Rectangle_1183" data-name="Rectangle 1183" width="102" height="102" fill="none"/>
</svg>
