<svg xmlns="http://www.w3.org/2000/svg" xmlns:xlink="http://www.w3.org/1999/xlink" width="100" height="100" viewBox="0 0 100 100">
  <defs>
    <clipPath id="clip-path">
      <rect id="Rectangle_1356" data-name="Rectangle 1356" width="50" height="49.998" transform="translate(0 0.001)" fill="#34aba4"/>
    </clipPath>
  </defs>
  <g id="Hormonal_health" data-name="Hormonal health" transform="translate(-1457 -1781)">
    <circle id="Ellipse_3" data-name="Ellipse 3" cx="50" cy="50" r="50" transform="translate(1457 1781)" fill="#e6f3f4"/>
    <g id="Group_1657" data-name="Group 1657" transform="translate(1482 1806)">
      <g id="Group_1656" data-name="Group 1656" clip-path="url(#clip-path)">
        <path id="Path_1572" data-name="Path 1572" d="M0,50V0H29.491V17.774h.643c4.23,0,8.46-.008,12.69,0a7.3,7.3,0,0,1,7.169,7.162q.02,8.957,0,17.912a6.2,6.2,0,0,1-.154,1.351A7.284,7.284,0,0,1,42.56,50Q21.279,50,0,50M28.049,20.7q-7.176,0-14.35,0A4.433,4.433,0,0,0,8.983,25.4q0,8.491,0,16.985a4.431,4.431,0,0,0,4.672,4.69q14.373,0,28.748,0a4.426,4.426,0,0,0,4.667-4.645q.006-8.541-.006-17.083a5.417,5.417,0,0,0-.149-1.3A4.374,4.374,0,0,0,42.5,20.7q-7.224-.009-14.447,0M7.471,47.06c-.06-.113-.084-.169-.118-.219a7.522,7.522,0,0,1-1.3-4.362q.015-18.018.005-36.034V5.888h8.8V17.736H26.537V2.96H2.965v44.1ZM9.008,19.068c.811-.347,1.611-.728,2.441-1.025.347-.123.479-.236.476-.619-.018-2.715-.009-5.43-.01-8.145,0-.156-.014-.312-.021-.454H9.008Z" fill="#34aba4"/>
        <path id="Path_1573" data-name="Path 1573" d="M16.314,23.634a4.393,4.393,0,1,1-4.4,4.4,4.378,4.378,0,0,1,4.4-4.4m.005,2.929a1.464,1.464,0,1,0,1.452,1.474,1.509,1.509,0,0,0-1.452-1.474" fill="#007699"/>
        <path id="Path_1574" data-name="Path 1574" d="M28.038,32.419A4.393,4.393,0,1,1,32.419,28a4.38,4.38,0,0,1-4.381,4.416M29.49,28.03a1.464,1.464,0,1,0-1.467,1.46,1.51,1.51,0,0,0,1.467-1.46" fill="#007699"/>
        <path id="Path_1575" data-name="Path 1575" d="M39.759,32.419A4.393,4.393,0,1,1,44.137,28a4.381,4.381,0,0,1-4.378,4.419m1.449-4.4a1.464,1.464,0,1,0-1.452,1.476,1.51,1.51,0,0,0,1.452-1.476" fill="#007699"/>
        <path id="Path_1576" data-name="Path 1576" d="M16.327,35.353a4.392,4.392,0,1,1-4.411,4.386,4.376,4.376,0,0,1,4.411-4.386m1.444,4.408a1.464,1.464,0,1,0-1.48,1.448,1.51,1.51,0,0,0,1.48-1.448" fill="#007699"/>
        <path id="Path_1577" data-name="Path 1577" d="M28.045,35.352a4.393,4.393,0,1,1-4.411,4.387,4.377,4.377,0,0,1,4.411-4.387m0,5.856a1.464,1.464,0,1,0-1.477-1.45,1.511,1.511,0,0,0,1.477,1.45" fill="#007699"/>
        <path id="Path_1578" data-name="Path 1578" d="M35.353,39.755a4.393,4.393,0,1,1,4.416,4.382,4.38,4.38,0,0,1-4.416-4.382m4.416-1.474a1.464,1.464,0,1,0,1.439,1.487,1.512,1.512,0,0,0-1.439-1.487" fill="#007699"/>
        <rect id="Rectangle_1355" data-name="Rectangle 1355" width="2.867" height="8.92" transform="translate(20.726 5.888)" fill="#34aba4"/>
      </g>
    </g>
  </g>
</svg>
