<svg xmlns="http://www.w3.org/2000/svg" xmlns:xlink="http://www.w3.org/1999/xlink" width="100" height="100" viewBox="0 0 100 100">
  <defs>
    <clipPath id="clip-path">
      <rect id="Rectangle_965" data-name="Rectangle 965" width="50" height="49.904" transform="translate(0 0)" fill="#34aba4"/>
    </clipPath>
  </defs>
  <g id="Pain" transform="translate(-363 -1781)">
    <circle id="Ellipse_1" data-name="Ellipse 1" cx="50" cy="50" r="50" transform="translate(363 1781)" fill="#e6f3f4"/>
    <g id="Group_1379" data-name="Group 1379" transform="translate(388 1806.048)">
      <g id="Group_1378" data-name="Group 1378" clip-path="url(#clip-path)">
        <path id="Path_1328" data-name="Path 1328" d="M39.466,0h.1c.109.119.212.243.326.357q4.8,4.808,9.612,9.61a5.294,5.294,0,0,0,.5.38c-.247.208-.416.332-.565.476a23.677,23.677,0,0,0-5.869,8.957,31.5,31.5,0,0,0-1.243,5.436A20.408,20.408,0,0,1,37,35.691a20.959,20.959,0,0,1-12.79,6.8A22.1,22.1,0,0,0,13.055,47.4c-.939.767-1.807,1.619-2.779,2.5a3.449,3.449,0,0,0-.308-.4Q7.182,46.7,4.389,43.917,2.2,41.736,0,39.563v-.1a.3.3,0,0,0,.086-.04,24.034,24.034,0,0,0,6.165-9.106A32.25,32.25,0,0,0,7.565,24.7a21.174,21.174,0,0,1,8.26-13.168A19.473,19.473,0,0,1,25.134,7.5,23.124,23.124,0,0,0,34.66,4.076,22.137,22.137,0,0,0,39.466,0M14.2,33.472,33.475,14.2c-.305-.429-.64-.9-.964-1.352A36.1,36.1,0,0,0,12.848,32.511l1.354.961m21.47-17.067L16.405,35.672l.978,1.371A36.078,36.078,0,0,0,37.045,17.378l-1.373-.973M30.924,9.171c-.412.125-.82.284-1.243.372-1.679.35-3.379.613-5.042,1.027A18.768,18.768,0,0,0,11.4,21.943a18.051,18.051,0,0,0-1.1,4.218c-.273,1.606-.676,3.191-1.027,4.808a1.937,1.937,0,0,1,.328.114c.431.224.656.07.842-.354q.578-1.311,1.234-2.588a38.541,38.541,0,0,1,13.72-14.9c1.584-1.024,3.346-1.771,5.026-2.648.868-.454.867-.456.506-1.419m9.837,9.791a3.366,3.366,0,0,1-.473-.158c-.442-.232-.654-.04-.836.369q-.573,1.287-1.214,2.544A39.328,39.328,0,0,1,25.2,36.233a41.573,41.573,0,0,1-5.733,3.079c-.883.427-.872.45-.489,1.422a37.192,37.192,0,0,1,5.713-1.3A18.8,18.8,0,0,0,39.282,25.389a41.453,41.453,0,0,1,1.479-6.427m-1.195-14.7L33.747,8.152a10.6,10.6,0,0,0,8,7.968l3.887-5.792L39.566,4.261M16.143,41.738a10.6,10.6,0,0,0-8-7.968L4.3,39.5,10.384,45.6l5.759-3.858" fill="#34aba4"/>
        <path id="Path_1329" data-name="Path 1329" d="M0,15.4l1.3-2.532c.521.255,1.037.483,1.526.756a.66.66,0,0,0,.832-.064c.279-.22.613-.373.886-.6a1.419,1.419,0,0,1,1.347-.286c.846.2,1.706.349,2.617.53-.184.965-.363,1.9-.55,2.876-.613-.116-1.192-.25-1.779-.323a1.2,1.2,0,0,0-.71.138c-.588.343-1.136.754-1.724,1.1a.747.747,0,0,1-.6.037c-1.057-.491-2.1-1.017-3.144-1.533v-.1" fill="#007699"/>
        <path id="Path_1330" data-name="Path 1330" d="M15.494,0c.516,1.046,1.044,2.086,1.535,3.143a.75.75,0,0,1-.042.6c-.351.6-.765,1.167-1.12,1.766a1.032,1.032,0,0,0-.12.622c.082.592.213,1.176.336,1.825L13.2,8.515c-.215-1.092-.425-2.12-.61-3.152a.718.718,0,0,1,.134-.442,14.389,14.389,0,0,1,.829-1.259.694.694,0,0,0,.042-.877c-.263-.464-.477-.956-.733-1.478L15.4,0Z" fill="#007699"/>
        <path id="Path_1331" data-name="Path 1331" d="M33.809,41.935l2.88-.55c.214,1.087.423,2.116.61,3.148a.654.654,0,0,1-.111.4,4.83,4.83,0,0,1-.586.893,1.224,1.224,0,0,0-.092,1.719,8.675,8.675,0,0,1,.524,1.061L34.4,49.9c-.55-1.116-1.094-2.2-1.608-3.293a.621.621,0,0,1,.108-.473c.365-.594.77-1.163,1.125-1.762a1.028,1.028,0,0,0,.114-.622c-.082-.591-.212-1.176-.334-1.819" fill="#007699"/>
        <path id="Path_1332" data-name="Path 1332" d="M41.38,36.688c.188-.975.367-1.907.554-2.879.624.117,1.205.25,1.794.323a1.2,1.2,0,0,0,.708-.137c.588-.342,1.14-.744,1.721-1.1a.608.608,0,0,1,.474-.089c1.083.507,2.152,1.043,3.271,1.593l-1.3,2.636c-.532-.262-1.037-.482-1.513-.754a.657.657,0,0,0-.872.073,2.909,2.909,0,0,1-3.145.682,12.626,12.626,0,0,0-1.7-.347" fill="#007699"/>
        <path id="Path_1333" data-name="Path 1333" d="M44.916,43.72c-.447.9-.865,1.732-1.307,2.619-.865-.427-1.675-.905-2.543-1.233a1.406,1.406,0,0,1-1.011-1.564,8.754,8.754,0,0,0-.1-1.453.891.891,0,0,0-.263-.476c-.433-.414-.89-.8-1.383-1.24l1.954-2.194c.813.724,1.6,1.417,2.375,2.127a.725.725,0,0,1,.176.427c.061.563.076,1.132.155,1.693a.714.714,0,0,0,.312.455c.517.3,1.06.548,1.638.839" fill="#007699"/>
        <path id="Path_1334" data-name="Path 1334" d="M11.59,9.521,9.636,11.71c-.83-.738-1.659-1.452-2.451-2.206-.133-.127-.119-.424-.142-.646-.058-.563.079-1.245-.2-1.659S5.9,6.645,5.4,6.383c-.128-.067-.253-.138-.412-.225.433-.866.855-1.716,1.3-2.611,1.132.561,2.231,1.1,3.319,1.661.09.046.13.244.143.376.068.71.1,1.423.189,2.13a1.028,1.028,0,0,0,.277.567c.426.42.887.8,1.376,1.24" fill="#007699"/>
      </g>
    </g>
  </g>
</svg>
