<svg xmlns="http://www.w3.org/2000/svg" xmlns:xlink="http://www.w3.org/1999/xlink" width="100" height="100" viewBox="0 0 100 100">
  <defs>
    <clipPath id="clip-path">
      <rect id="Rectangle_1352" data-name="Rectangle 1352" width="50" height="38.899" transform="translate(0 0)" fill="none"/>
    </clipPath>
  </defs>
  <g id="Sleep" transform="translate(-1457 -1781)">
    <circle id="Ellipse_3" data-name="Ellipse 3" cx="50" cy="50" r="50" transform="translate(1457 1781)" fill="#e6f3f4"/>
    <g id="Group_1651" data-name="Group 1651" transform="translate(1482 1811.551)">
      <g id="Group_1650" data-name="Group 1650" clip-path="url(#clip-path)">
        <path id="Path_1560" data-name="Path 1560" d="M50,38.9H47.086V34.452H2.921v4.412H0V20.145H1.117c-.06-.491-.15-.936-.163-1.383a4.186,4.186,0,0,1,1.621-3.495.791.791,0,0,0,.324-.7q-.013-5.031,0-10.063A4.307,4.307,0,0,1,5.362.449,3.856,3.856,0,0,1,7.194.006c1.058,0,2.116,0,3.175,0q15.95,0,31.9,0a4.839,4.839,0,0,1,2.056.316A4.216,4.216,0,0,1,47.058,4.3c.043,3.4.019,6.806.01,10.209a.9.9,0,0,0,.348.782,4.313,4.313,0,0,1,1.468,4.519c-.017.078-.034.157-.05.235a.484.484,0,0,0,.013.1H50ZM47.048,23.108H2.921v8.344H47.048ZM5.827,14.25H8.752c0-.4-.007-.768,0-1.138a6.552,6.552,0,0,1,.061-1.07A4.377,4.377,0,0,1,13.2,8.415c2.932-.005,5.863,0,8.794,0a4.462,4.462,0,0,1,2.688.873c.1.074.207.144.314.219a4.409,4.409,0,0,1,2.832-1.087c3.029,0,6.058-.012,9.087,0a4.358,4.358,0,0,1,4.287,4.211c.015.533,0,1.066,0,1.612h2.934v-.469c0-3.045-.021-6.09.012-9.135a1.623,1.623,0,0,0-1.732-1.713q-17.441.025-34.881,0a1.624,1.624,0,0,0-1.725,1.72c.034,3.028.012,6.057.012,9.086v.519m19.1,5.89H44.171c.163,0,.327.007.489,0a1.509,1.509,0,0,0,1.426-1.358,1.471,1.471,0,0,0-1.176-1.521,2.867,2.867,0,0,0-.629-.047q-19.291,0-38.583,0a4.283,4.283,0,0,0-.439.006,1.512,1.512,0,0,0-1.381,1.405A1.5,1.5,0,0,0,5.1,20.111a3.06,3.06,0,0,0,.583.028q9.621,0,19.243,0M11.692,14.245H23.52c0-.4-.02-.776,0-1.146a1.6,1.6,0,0,0-1.777-1.764c-2.765.035-5.53.011-8.3.011a3.9,3.9,0,0,0-.39.006A1.478,1.478,0,0,0,11.7,12.709c-.028.5,0,1,0,1.536m14.762,0H38.279c0-.437,0-.842,0-1.246a1.5,1.5,0,0,0-1.67-1.651q-2.146,0-4.294,0c-1.431,0-2.862-.006-4.293,0a1.48,1.48,0,0,0-1.561,1.364c-.039.5-.007,1-.007,1.531" fill="#34aba4"/>
        <path id="Path_1561" data-name="Path 1561" d="M26.473,14.257c0-.529-.032-1.033.007-1.531a1.48,1.48,0,0,1,1.561-1.364c1.431-.009,2.862,0,4.293,0s2.863,0,4.294,0a1.5,1.5,0,0,1,1.67,1.651c0,.4,0,.808,0,1.245h2.928c0-.546.013-1.079,0-1.612a4.358,4.358,0,0,0-4.287-4.211c-3.029-.015-6.058-.006-9.087,0a4.409,4.409,0,0,0-2.832,1.087c-.107-.075-.211-.145-.314-.219a4.462,4.462,0,0,0-2.688-.873c-2.931.008-5.862,0-8.794,0a4.377,4.377,0,0,0-4.388,3.627,6.552,6.552,0,0,0-.061,1.07c-.009.37,0,.741,0,1.138l2.94,0c0-.533-.023-1.036,0-1.536a1.478,1.478,0,0,1,1.365-1.357,3.9,3.9,0,0,1,.39-.006c2.765,0,5.53.024,8.3-.011a1.6,1.6,0,0,1,1.777,1.764c-.024.37,0,.743,0,1.146Z" fill="#007699"/>
      </g>
    </g>
  </g>
</svg>
