<svg id="cart_menu_2" xmlns="http://www.w3.org/2000/svg" width="30" height="30" viewBox="0 0 30 30">
  <g id="Group_1424" data-name="Group 1424" transform="translate(1 0.999)">
    <path id="Path_1362" data-name="Path 1362" d="M0,.492A.768.768,0,0,1,.814,0c.665.016,1.33-.008,1.995.008A2.946,2.946,0,0,1,5.634,2.015c.175.484.336.972.492,1.462a.268.268,0,0,0,.3.221c2.15.025,4.3.064,6.45.092q7.052.094,14.1.188a2.135,2.135,0,0,1,.751.173.452.452,0,0,1,.246.565c-.554,2.234-1.06,4.481-1.693,6.694a3.273,3.273,0,0,1-3.015,2.373c-2.206.255-4.417.463-6.625.688q-3.013.3-6.029.6c-.262.026-.523.074-.786.085-.157.007-.211.084-.272.2A1.8,1.8,0,0,0,9.472,17.1a1.608,1.608,0,0,0,1.379.9c.118.01.237.006.355.006q6.029,0,12.056,0a2.031,2.031,0,0,1,.432.042.6.6,0,0,1,.491.639.624.624,0,0,1-.57.581,2.657,2.657,0,0,1-.3.011H11.122a2.982,2.982,0,0,1-3.109-2.507,2.882,2.882,0,0,1,.318-1.906.9.9,0,0,0,.044-.779Q6.391,8.3,4.426,2.51a1.688,1.688,0,0,0-1.76-1.231c-.591,0-1.184-.01-1.777,0A.864.864,0,0,1,0,.811Zm6.646,4.48c.038.129.066.238.1.344Q8.132,9.408,9.519,13.5c.133.393.131.383.573.335,1.139-.124,2.278-.238,3.421-.353,1.491-.15,2.985-.293,4.478-.444,1.674-.168,3.347-.352,5.021-.51a2.23,2.23,0,0,0,2.145-1.793c.3-1.219.611-2.438.916-3.658.148-.6.293-1.193.447-1.822L6.645,4.972" transform="translate(0 0)" fill="#00828c" stroke="#00828c" stroke-linecap="round" stroke-width="0.5"/>
    <path id="Path_1363" data-name="Path 1363" d="M8.273,24.607a3.133,3.133,0,0,1,.015-6.266,3.133,3.133,0,1,1-.015,6.266m-.009-1.4a1.739,1.739,0,0,0,1.752-1.71,1.767,1.767,0,0,0-1.722-1.753,1.74,1.74,0,0,0-1.74,1.722,1.718,1.718,0,0,0,1.71,1.74" transform="translate(0.745 2.638)" fill="#00828c" stroke="#00828c" stroke-linecap="round" stroke-width="0.5"/>
    <path id="Path_1364" data-name="Path 1364" d="M18.855,24.607a3.133,3.133,0,0,1-3.134-3.118,3.139,3.139,0,1,1,3.134,3.118m-.015-1.4A1.721,1.721,0,0,0,20.587,21.5a1.728,1.728,0,1,0-3.456-.039A1.724,1.724,0,0,0,18.84,23.2" transform="translate(1.929 2.638)" fill="#00828c" stroke="#00828c" stroke-linecap="round" stroke-width="0.5"/>
  </g>
  <rect id="Rectangle_1399" data-name="Rectangle 1399" width="30" height="30" fill="none"/>
</svg>
