<svg id="Consultation" xmlns="http://www.w3.org/2000/svg" width="36" height="36" viewBox="0 0 36 36">
  <g id="Group_1330" data-name="Group 1330" transform="translate(1 4.2)">
    <path id="Path_1301" data-name="Path 1301" d="M34,25.565c-.089.221-.161.451-.269.662a2.313,2.313,0,0,1-2.208,1.4q-14.543-.018-29.083.01a2.563,2.563,0,0,1-2.434-2.7.517.517,0,0,1,.582-.5c.764,0,1.527,0,2.291,0h.312V7.052A1.585,1.585,0,0,1,4.913,5.314H8.1c.433,0,.659.178.665.518s-.225.541-.675.541c-1.051,0-2.1,0-3.154,0-.5,0-.684.186-.684.679q0,8.35,0,16.7c0,.5.187.68.679.685h.385c0-.159,0-.308,0-.457a10.941,10.941,0,0,1,.509-4.054,9.621,9.621,0,0,1,6.224-6.2c.07-.024.137-.055.235-.094-.253-.2-.5-.367-.714-.563a4.952,4.952,0,0,1-1.735-3.8c-.01-2.169,0-4.338,0-6.507A2.734,2.734,0,0,1,12.585,0q2.291,0,4.582,0a2.734,2.734,0,0,1,2.754,2.761c0,2.114,0,4.227,0,6.341a5.068,5.068,0,0,1-2.261,4.375c-.051.036-.1.079-.185.151a9.675,9.675,0,0,1,5.473,4.1,10.467,10.467,0,0,1,1.459,6.688c.149.008.245.018.342.018q2.141,0,4.282,0c.54,0,.718-.176.718-.713q0-4.566,0-9.13a2.979,2.979,0,0,1,0-.3.529.529,0,0,1,1.054.013c.007.087,0,.176,0,.265q0,4.581,0,9.163c0,.219-.02.439-.033.7h1.228c.421,0,.842.016,1.261-.005a.747.747,0,0,1,.734.336ZM6.4,24.413H23.357c.282-4.493-1.567-7.369-4.209-8.843.14.663.293,1.328.415,2a.466.466,0,0,0,.314.431,1.938,1.938,0,0,1,1.163,2.188,2.006,2.006,0,0,1-1.886,1.583,1.973,1.973,0,0,1-.906-3.744c.1-.047.192-.092.284-.136a9.791,9.791,0,0,0-.749-2.794.652.652,0,0,0-.322-.332,8.031,8.031,0,0,0-4.314-.22.381.381,0,0,0-.248.177c-.29.77-.563,1.546-.845,2.329.172.071.275.108.373.154a2.145,2.145,0,0,1,1.362,1.859c.068,1.269.026,2.544.018,3.816,0,.3-.225.48-.553.494-.7.029-.96-.076-1.023-.418a.509.509,0,0,1,.248-.568,2.2,2.2,0,0,1,.272-.117c0-.989.017-1.974-.005-2.957a1.325,1.325,0,0,0-2.646,0c-.02.984-.005,1.968-.005,2.954a.721.721,0,0,0,.095.043.523.523,0,0,1,.429.613c-.032.283-.253.439-.6.445-.1,0-.2,0-.3,0-.522,0-.684-.167-.684-.7q0-1.626,0-3.253A2.314,2.314,0,0,1,10.8,17.068c.079-.022.195-.064.212-.121.189-.616.36-1.236.543-1.876C8.713,16.305,5.989,19.4,6.4,24.413M10.859,6.38c.034,1.2-.016,2.375.121,3.531a4.04,4.04,0,0,0,3.913,3.368A3.93,3.93,0,0,0,18.7,10.167a26.768,26.768,0,0,0,.15-3.733c0-.016-.027-.032-.047-.054Zm-9.7,19.126a1.284,1.284,0,0,0,1.231,1.055H31.609a1.229,1.229,0,0,0,1.213-1.055Zm17.7-20.2c0-.905.028-1.778-.007-2.649A1.666,1.666,0,0,0,17.2,1.066q-2.322-.022-4.645,0a1.633,1.633,0,0,0-1.6,1.326,5.6,5.6,0,0,0-.057,1.022c-.009.625,0,1.252,0,1.888Zm.26,13.609a.884.884,0,1,0,.889.866.861.861,0,0,0-.889-.866" transform="translate(0 0)" fill="#fff" stroke="#fff" stroke-width="0.5"/>
    <path id="Path_1302" data-name="Path 1302" d="M34,11.488a1.687,1.687,0,0,1-1.2,1.21,1.841,1.841,0,0,1-.425.048q-5.755,0-11.511.005c-.309,0-.555-.076-.648-.391s.076-.5.32-.658a3.827,3.827,0,0,0,1.7-3.178c.088-1.566.062-3.138.077-4.707a1.586,1.586,0,0,1,1.7-1.69c2.676,0,5.352.022,8.028-.013A1.789,1.789,0,0,1,34,3.387Zm-11.818.185c.109.007.171.014.233.014q4.929,0,9.857,0c.465,0,.665-.2.666-.671q0-3.567,0-7.135c0-.506-.194-.694-.709-.694H24.1c-.536,0-.722.183-.723.713,0,1.261.008,2.522-.006,3.783a10.769,10.769,0,0,1-.1,1.354,5.412,5.412,0,0,1-1.083,2.636" transform="translate(0 0)" fill="#f28c00" stroke="#f28c00" stroke-width="0.5"/>
    <path id="Path_1303" data-name="Path 1303" d="M14.318,3.729c-.553-.028-.769-.186-.767-.544s.209-.5.7-.538a5.038,5.038,0,0,1,.316-.675c.049-.076.217-.1.33-.105.342,0,.471.188.537.757.6.1.792.243.77.6-.02.335-.224.473-.7.5a5.053,5.053,0,0,1-.318.676c-.049.076-.216.1-.33.1-.337,0-.468-.191-.539-.779" transform="translate(0 0)" fill="#fff"/>
    <path id="Path_1304" data-name="Path 1304" d="M28.139,6.373c-.675,0-1.35,0-2.025,0-.392,0-.616-.2-.612-.538s.225-.519.6-.52q2.058,0,4.117,0a.522.522,0,0,1,.595.521c0,.333-.222.535-.613.537-.686,0-1.372,0-2.058,0" transform="translate(0 0)" fill="#f28c00" stroke="#f28c00" stroke-width="0.5"/>
    <path id="Path_1305" data-name="Path 1305" d="M27.641,8.5c.5,0,1,0,1.494,0,.391,0,.617.2.613.536a.524.524,0,0,1-.595.522q-1.527,0-3.054,0a.523.523,0,0,1-.6-.52c-.005-.335.219-.536.611-.538.509,0,1.018,0,1.527,0" transform="translate(0 0)" fill="#f28c00" stroke="#f28c00" stroke-width="0.5"/>
  </g>
  <rect id="Rectangle_1392" data-name="Rectangle 1392" width="36" height="36" fill="none"/>
</svg>
