<svg id="Dispensary" xmlns="http://www.w3.org/2000/svg" xmlns:xlink="http://www.w3.org/1999/xlink" width="36" height="36" viewBox="0 0 36 36">
  <defs>
    <clipPath id="clip-path">
      <rect id="Rectangle_917" data-name="Rectangle 917" width="29.988" height="30" fill="#fff"/>
    </clipPath>
  </defs>
  <g id="Group_1293" data-name="Group 1293" transform="translate(3 3)">
    <g id="Group_1292" data-name="Group 1292" clip-path="url(#clip-path)">
      <path id="Path_1296" data-name="Path 1296" d="M8.639,22.738c0,.671-.006,1.317.007,1.963a.373.373,0,0,0,.153.269q2.637,1.52,5.285,3.022a1.569,1.569,0,0,0,.148.06v-.367q0-3.637,0-7.275a.763.763,0,1,1,1.521-.01q0,2.907,0,5.813v1.845c.114-.055.2-.09.276-.135,1.69-.964,3.377-1.934,5.072-2.889a.434.434,0,0,0,.249-.446q-.007-4.876,0-9.753a.76.76,0,0,1,.736-.854.752.752,0,0,1,.784.711c.007.106,0,.212,0,.318q0,4.781-.005,9.562a.457.457,0,0,0,.272.466c1.584.894,3.16,1.8,4.738,2.7.444.254.589.175.589-.329q0-8.753.007-17.5a.6.6,0,0,0-.357-.6c-1.106-.62-2.211-1.246-3.3-1.893a1.2,1.2,0,0,1-.463-.524.661.661,0,0,1,.242-.793.727.727,0,0,1,.862-.068Q27.3,7.079,29.142,8.145a1.647,1.647,0,0,1,.8,1.131,2.319,2.319,0,0,1,.042.471q0,8.911,0,17.822a1.775,1.775,0,0,1-2.744,1.58q-2.386-1.356-4.761-2.73a.627.627,0,0,0-.722-.007c-1.9,1.1-3.818,2.183-5.722,3.283a1.938,1.938,0,0,1-2.1-.006C12.03,28.581,10.1,27.5,8.191,26.39a.556.556,0,0,0-.639,0q-2.4,1.391-4.816,2.757a1.755,1.755,0,0,1-2.464-.568,1.882,1.882,0,0,1-.26-.9Q-.011,18.65,0,9.611A1.6,1.6,0,0,1,.8,8.178C2.056,7.433,3.326,6.715,4.6,6a.747.747,0,0,1,1.041.291A.76.76,0,0,1,5.3,7.349q-1.713,1-3.441,1.967a.6.6,0,0,0-.347.6q.012,8.736.006,17.473c0,.536.13.612.6.345,1.588-.907,3.174-1.819,4.766-2.721a.381.381,0,0,0,.235-.39c-.014-.624,0-1.249,0-1.889a3.034,3.034,0,0,1-1.445-.987,2.791,2.791,0,0,1,1.155-4.306.382.382,0,0,0,.3-.431c-.017-.73-.008-1.461-.005-2.191a.765.765,0,1,1,1.521.011q0,1.126,0,2.255c0,.144.009.238.183.309a2.771,2.771,0,0,1,1.85,2.722,2.8,2.8,0,0,1-1.9,2.564l-.135.055m-.777-3.972a1.276,1.276,0,0,0-1.255,1.285,1.27,1.27,0,1,0,1.255-1.285" fill="#fff"/>
      <path id="Path_1297" data-name="Path 1297" d="M14.977,0a7.931,7.931,0,0,1,7.8,6.755,7.614,7.614,0,0,1-3.513,7.787A7.491,7.491,0,0,0,16.547,17.4a1.628,1.628,0,0,1-1.61.929,1.655,1.655,0,0,1-1.524-.97,6.829,6.829,0,0,0-2.567-2.732A7.492,7.492,0,0,1,7.221,6.755,7.5,7.5,0,0,1,12.951.334,16.18,16.18,0,0,1,14.977,0m.006,1.585c-.294.027-.59.044-.883.081A6.275,6.275,0,0,0,8.648,7.828a6.291,6.291,0,0,0,3.108,5.582,8.734,8.734,0,0,1,1.662,1.307,16.387,16.387,0,0,1,1.269,1.769c.086.119.2.265.324.292.073.016.21-.167.285-.281.139-.212.246-.444.38-.659a9.062,9.062,0,0,1,2.778-2.6,6.1,6.1,0,0,0,2.808-6.231,6.305,6.305,0,0,0-6.279-5.421" fill="#f28c00"/>
      <path id="Path_1298" data-name="Path 1298" d="M25.162,20.792a.761.761,0,0,1,1.521,0,.761.761,0,1,1-1.521,0" fill="#fff"/>
      <path id="Path_1299" data-name="Path 1299" d="M26.683,17.238a.761.761,0,1,1-1.521-.015.761.761,0,0,1,1.521.015" fill="#fff"/>
      <path id="Path_1300" data-name="Path 1300" d="M15.007,11.106a3.311,3.311,0,1,1,3.29-3.36,3.306,3.306,0,0,1-3.29,3.36m-.028-1.541a1.766,1.766,0,1,0-1.764-1.787,1.779,1.779,0,0,0,1.764,1.787" fill="#f28c00"/>
    </g>
  </g>
  <rect id="Rectangle_1395" data-name="Rectangle 1395" width="36" height="36" fill="none"/>
</svg>
