<svg id="dropdown" xmlns="http://www.w3.org/2000/svg" width="18" height="18" viewBox="0 0 18 18">
  <path id="Path_1468" data-name="Path 1468" d="M8.048,1.736a1.47,1.47,0,0,0,.154.223Q11.435,5.2,14.67,8.432a.8.8,0,0,0,.591.29.728.728,0,0,0,.566-1.19,2.031,2.031,0,0,0-.157-.165Q12.147,3.844,8.623.318A.858.858,0,0,0,8,0a.818.818,0,0,0-.592.287Q4.349,3.348,1.29,6.4C.947,6.747.6,7.088.262,7.432a.732.732,0,1,0,1.03,1.032q3.252-3.251,6.5-6.5a1.552,1.552,0,0,0,.157-.222l.1,0" transform="translate(1 4.64)" fill="#fff" stroke="#fff" stroke-width="1"/>
  <rect id="Rectangle_1265" data-name="Rectangle 1265" width="18" height="18" fill="none"/>
</svg>
