<svg id="dropdown" xmlns="http://www.w3.org/2000/svg" xmlns:xlink="http://www.w3.org/1999/xlink" width="18" height="18" viewBox="0 0 18 18">
  <defs>
    <clipPath id="clip-path">
      <rect id="Rectangle_1264" data-name="Rectangle 1264" width="16" height="8.727" transform="translate(0 0)" fill="#005568"/>
    </clipPath>
  </defs>
  <g id="Group_1583" data-name="Group 1583" transform="translate(1 4.64)">
    <g id="Group_1582" data-name="Group 1582" clip-path="url(#clip-path)">
      <path id="Path_1468" data-name="Path 1468" d="M8.048,6.99A1.47,1.47,0,0,1,8.2,6.767Q11.435,3.528,14.67.294A.8.8,0,0,1,15.261,0a.692.692,0,0,1,.656.405.693.693,0,0,1-.09.785,2.032,2.032,0,0,1-.157.165Q12.147,4.882,8.623,8.408A.858.858,0,0,1,8,8.727a.818.818,0,0,1-.592-.287Q4.349,5.379,1.29,2.322C.947,1.979.6,1.638.262,1.294A.732.732,0,1,1,1.292.262q3.252,3.25,6.5,6.5a1.552,1.552,0,0,1,.157.222l.1,0" fill="#FEC86A"/>
    </g>
  </g>
  <rect id="Rectangle_1265" data-name="Rectangle 1265" width="18" height="18" fill="none"/>
</svg>
