<svg id="facebook" xmlns="http://www.w3.org/2000/svg" xmlns:xlink="http://www.w3.org/1999/xlink" width="46" height="46" viewBox="0 0 46 46">
  <defs>
    <clipPath id="clip-path">
      <rect id="Rectangle_73" data-name="Rectangle 73" width="44" height="44" fill="#fff"/>
    </clipPath>
  </defs>
  <g id="Group_33" data-name="Group 33" transform="translate(1 1)">
    <g id="Group_32" data-name="Group 32" clip-path="url(#clip-path)">
      <path id="Path_42" data-name="Path 42" d="M44,20.44v3.1c-.028.123-.068.244-.084.369-.1.722-.151,1.453-.291,2.166A21.784,21.784,0,0,1,36.569,38.48a21.528,21.528,0,0,1-11.251,5.265c-.589.09-1.18.17-1.769.255H20.542c-.139-.028-.278-.063-.417-.082-.752-.1-1.51-.158-2.252-.306A21.51,21.51,0,0,1,4.987,35.926,21.557,21.557,0,0,1,.305,18.355a20.5,20.5,0,0,1,4.52-10.1A21.617,21.617,0,0,1,25.047.188a20.428,20.428,0,0,1,9.942,4.033,21.715,21.715,0,0,1,8.667,13.891c.143.771.23,1.552.344,2.328M24.153,18.718c0-.935-.009-1.808,0-2.68a.986.986,0,0,1,1.046-1.1c.814-.05,1.631-.065,2.447-.066.424,0,.61-.2.61-.6,0-1.089-.01-2.178-.016-3.267a.531.531,0,0,0-.611-.6c-1.217.017-2.442-.051-3.647.075A4.765,4.765,0,0,0,19.7,13.692a8.9,8.9,0,0,0-.437,2.3c-.073.893-.017,1.8-.017,2.74-.943,0-1.842,0-2.74,0-.613,0-.757.143-.76.763-.006,1.046,0,2.092,0,3.138,0,.737.1.833.844.834h2.658v.55q0,4.426,0,8.855c0,.375.081.664.528.664,1.275,0,2.549,0,3.823,0a.458.458,0,0,0,.5-.509c.006-.172.014-.344.014-.516q0-4.255,0-8.511c0-.166.014-.333.024-.538,1.111,0,2.182,0,3.252,0,.6,0,.717-.118.719-.736q0-1.613,0-3.224c0-.649-.13-.778-.776-.779-1.043,0-2.085,0-3.179,0" fill="#fff"/>
    </g>
  </g>
  <rect id="Rectangle_1421" data-name="Rectangle 1421" width="46" height="46" fill="none"/>
</svg>
