<svg id="filter" xmlns="http://www.w3.org/2000/svg" xmlns:xlink="http://www.w3.org/1999/xlink" width="22" height="22" viewBox="0 0 22 22">
  <defs>
    <clipPath id="clip-path">
      <rect id="Rectangle_1174" data-name="Rectangle 1174" width="18.571" height="20" fill="#005568"/>
    </clipPath>
  </defs>
  <g id="Group_1537" data-name="Group 1537" transform="translate(2 1)">
    <g id="Group_1536" data-name="Group 1536" clip-path="url(#clip-path)">
      <path id="Path_1435" data-name="Path 1435" d="M5.261,2C6.78,2,8.3,2,9.818,2c.15,0,.225-.027.279-.189a2.629,2.629,0,0,1,5,.006A.225.225,0,0,0,15.362,2c.829-.006,1.657,0,2.485,0a.667.667,0,1,1,0,1.331c-.822,0-1.643,0-2.466,0a.25.25,0,0,0-.293.2A2.628,2.628,0,0,1,10.1,3.52a.237.237,0,0,0-.277-.191q-4.558.007-9.116,0A.665.665,0,0,1,0,2.719.655.655,0,0,1,.682,2Q2.971,2,5.261,2m6.011.647a1.326,1.326,0,1,0,1.354-1.315,1.347,1.347,0,0,0-1.354,1.315" transform="translate(0 0)" fill="#005568"/>
      <path id="Path_1436" data-name="Path 1436" d="M12.981,14.333c-1.63,0-3.259,0-4.889,0a.251.251,0,0,0-.292.2,2.628,2.628,0,0,1-4.994-.009.235.235,0,0,0-.278-.191c-.608.009-1.215,0-1.823,0A.667.667,0,1,1,.705,13c.615,0,1.229,0,1.844,0a.21.21,0,0,0,.248-.171,2.631,2.631,0,0,1,5.011-.009c.051.154.123.18.264.18q4.889,0,9.778,0a.665.665,0,0,1,.663.927.65.65,0,0,1-.642.405q-2.444,0-4.889,0M6.63,13.66A1.326,1.326,0,1,0,5.321,15,1.345,1.345,0,0,0,6.63,13.66" transform="translate(0 -3.667)" fill="#005568"/>
      <path id="Path_1437" data-name="Path 1437" d="M5.254,24q2.289,0,4.578,0a.224.224,0,0,0,.263-.182,2.627,2.627,0,0,1,4.993-.025.263.263,0,0,0,.309.208c.815-.007,1.63,0,2.444,0a.668.668,0,1,1,0,1.332c-.822,0-1.643,0-2.466,0a.238.238,0,0,0-.276.193,2.629,2.629,0,0,1-5-.015c-.052-.157-.128-.177-.266-.177q-4.558,0-9.116,0A.663.663,0,0,1,0,24.707.653.653,0,0,1,.676,24q2.144,0,4.289,0h.29m8.669.675A1.326,1.326,0,1,0,12.6,26a1.346,1.346,0,0,0,1.325-1.324" transform="translate(0 -7.334)" fill="#005568"/>
    </g>
  </g>
  <rect id="Rectangle_1176" data-name="Rectangle 1176" width="22" height="22" fill="none"/>
</svg>
