<svg id="Form" xmlns="http://www.w3.org/2000/svg" xmlns:xlink="http://www.w3.org/1999/xlink" width="36" height="36" viewBox="0 0 36 36">
  <defs>
    <clipPath id="clip-path">
      <rect id="Rectangle_902" data-name="Rectangle 902" width="33.994" height="34" fill="#00757e"/>
    </clipPath>
  </defs>
  <rect id="Rectangle_897" data-name="Rectangle 897" width="36" height="36" fill="none"/>
  <g id="Group_1261" data-name="Group 1261" transform="translate(1.003 1)">
    <g id="Group_1260" data-name="Group 1260" clip-path="url(#clip-path)">
      <path id="Path_1240" data-name="Path 1240" d="M14.946,2.524H12.812c-2.124,0-4.247-.008-6.371.007a7.958,7.958,0,0,0-1.5.139A2.708,2.708,0,0,0,2.608,5.209a9.813,9.813,0,0,0-.079,1.2q-.008,9.791,0,19.579a7.635,7.635,0,0,0,.137,1.464A2.715,2.715,0,0,0,5.235,29.8a12.268,12.268,0,0,0,1.355.078c3.2.006,6.4,0,9.595.005a1.226,1.226,0,0,1,1.218.9,1.18,1.18,0,0,1-.5,1.356,1.764,1.764,0,0,1-.84.219c-3.185.015-6.371-.007-9.556.021a8.1,8.1,0,0,1-2.645-.245A5.611,5.611,0,0,1,.025,26.31c.015-.154.016-.31.016-.465,0-6.436.012-12.872-.012-19.307a7.928,7.928,0,0,1,.325-2.9A5.612,5.612,0,0,1,6.1.025c.168.016.337.015.5.015,3.134,0,6.267.007,9.4-.006a1.587,1.587,0,0,1,1.21.493q4.84,4.855,9.7,9.7A1.533,1.533,0,0,1,27.4,11.4c-.016,1.567,0,3.134-.007,4.7a1.245,1.245,0,1,1-2.482.01q0-1.612,0-3.225v-.4c-1.33,0-2.628-.082-3.911.018a5.644,5.644,0,0,1-5.945-4.438,9.412,9.412,0,0,1-.1-1.656c-.013-1.279,0-2.559,0-3.887m8.019,7.459L17.524,4.544c0,.823-.064,1.8.015,2.755a2.637,2.637,0,0,0,2.084,2.495,13.564,13.564,0,0,0,3.342.189" fill="#00757e"/>
      <path id="Path_1241" data-name="Path 1241" d="M31.1,29.34c.818.816,1.621,1.622,2.429,2.423a1.287,1.287,0,0,1,.431,1.259,1.239,1.239,0,0,1-2.1.6C31.1,32.9,30.369,32.147,29.63,31.4a3.931,3.931,0,0,1-.256-.318,6.106,6.106,0,0,1-5.353.683,5.877,5.877,0,0,1-3.257-2.618,6.106,6.106,0,1,1,10.336.19m-1.516-3.313a3.579,3.579,0,0,0-3.545-3.61A3.583,3.583,0,1,0,26,29.582a3.544,3.544,0,0,0,3.583-3.555" fill="#f28c00"/>
      <path id="Path_1242" data-name="Path 1242" d="M15.792,14.96c1.217,0,2.435,0,3.652,0a1.244,1.244,0,1,1-.005,2.482q-3.651,0-7.3,0a1.243,1.243,0,1,1,0-2.482c1.217,0,2.435,0,3.652,0" fill="#00757e"/>
      <path id="Path_1243" data-name="Path 1243" d="M13.306,24.081c-.4,0-.8.012-1.2,0a1.238,1.238,0,0,1-1.287-1.264,1.255,1.255,0,0,1,1.318-1.238c.777-.009,1.554-.008,2.331,0A1.284,1.284,0,0,1,15.8,22.808a1.27,1.27,0,0,1-1.291,1.27c-.4.015-.8,0-1.2,0" fill="#00757e"/>
      <path id="Path_1244" data-name="Path 1244" d="M7.925,24.072A1.255,1.255,0,0,1,6.66,22.823,1.287,1.287,0,0,1,7.9,21.577,1.264,1.264,0,0,1,9.157,22.8a1.226,1.226,0,0,1-1.232,1.271" fill="#00757e"/>
      <path id="Path_1245" data-name="Path 1245" d="M7.926,17.443A1.241,1.241,0,1,1,7.9,14.961a1.241,1.241,0,1,1,.027,2.482" fill="#00757e"/>
    </g>
  </g>
</svg>
