<svg id="Shop" xmlns="http://www.w3.org/2000/svg" width="36" height="36" viewBox="0 0 36 36">
  <g id="Group_1635" data-name="Group 1635" transform="translate(3 4.5)">
    <path id="Path_1542" data-name="Path 1542" d="M30,3.048A2.915,2.915,0,0,0,26.966,0H17.778C14.141,0,5.817-.007,2.9.009A2.8,2.8,0,0,0,.287,1.678,6.994,6.994,0,0,0,0,2.463V19.807c.016.023.045.044.048.068a2.988,2.988,0,0,0,3.058,2.4c2.558-.041,5.117-.011,7.675-.011h.335a1.038,1.038,0,0,1,.019.126c0,.556.007,1.113,0,1.669a1.678,1.678,0,0,1-1.41,1.664,14.894,14.894,0,0,1-1.693.059.582.582,0,0,0-.647.594.575.575,0,0,0,.636.575H21.965a.579.579,0,0,0,.651-.59c0-.355-.254-.576-.663-.578-.439,0-.879.006-1.318,0a1.759,1.759,0,0,1-1.771-1.794c0-.479,0-.957,0-1.436v-.286h8.075A2.916,2.916,0,0,0,30,19.22q0-8.086,0-16.172m-28.828,13q0-6.461,0-12.92A1.791,1.791,0,0,1,3.138,1.173h23.74a1.789,1.789,0,0,1,1.951,1.946q0,6.475,0,12.949v.313H1.171Zm10.567,9.719c.831-1.062.5-2.291.59-3.479h5.339c.115,1.148-.25,2.389.6,3.479Zm17-5.947A1.663,1.663,0,0,1,27.1,21.095c-.088,0-.176,0-.264,0H3.172a1.8,1.8,0,0,1-2-2.014c0-.487,0-.975,0-1.495H28.862a19.217,19.217,0,0,1-.127,2.235" fill="#fff" stroke="#fff" stroke-width="0.6"/>
    <path id="Path_1544" data-name="Path 1544" d="M15,19.923a.584.584,0,1,1,.584-.592.577.577,0,0,1-.584.592" fill="#fff" stroke="#fff" stroke-width="0.6"/>
    <path id="Path_1543" data-name="Path 1543" d="M16.486,12.126H14.558c-.068,0-.135.007-.235.013a2.064,2.064,0,0,1,.132,1.762,1.992,1.992,0,0,1-3.132.8,2.047,2.047,0,0,1-.445-2.584c-.412-.088-.474-.429-.549-.769Q9.5,7.6,8.673,3.849c-.018-.085-.046-.168-.075-.269-.531,0-1.057,0-1.584,0-.441,0-.685-.208-.688-.577S6.57,2.41,7,2.408q1,0,1.992,0a.594.594,0,0,1,.683.534c.092.378.189.757.255,1.14.035.2.122.246.31.244.938-.008,1.875,0,2.813,0,2.607,0,5.214,0,7.821.009a.989.989,0,0,1,.606.2.66.66,0,0,1,.14.526c-.27,1.564-.564,3.125-.852,4.686-.1.565-.214,1.129-.317,1.695-.079.43-.108.477-.5.712a2.042,2.042,0,0,1,.177,1.628,1.995,1.995,0,0,1-3.1.993,2.07,2.07,0,0,1-.543-2.643M10.253,5.519c.386,1.741.771,3.449,1.139,5.16.048.225.144.269.351.268q3.659-.009,7.317,0c.219,0,.3-.063.342-.28.2-1.131.416-2.259.625-3.388.107-.58.21-1.162.318-1.761Zm2.335,6.844a.811.811,0,1,0,.829.806.823.823,0,0,0-.829-.806m5.649,1.621a.811.811,0,1,0-.831-.806.826.826,0,0,0,.831.806" fill="#f28c00" stroke="#f28c00" stroke-width="0.6"/>
  </g>
  <rect id="Rectangle_1394" data-name="Rectangle 1394" width="36" height="36" fill="none"/>
</svg>
