<svg id="star" xmlns="http://www.w3.org/2000/svg" width="24" height="24" viewBox="0 0 24 24">
  <path id="Path_5" data-name="Path 5" d="M3.588,20.169c.244-1.547.458-3.286.812-4.994a1.6,1.6,0,0,0-.565-1.681A41.559,41.559,0,0,1,.676,10.233,2.543,2.543,0,0,1,.034,8.348,2.292,2.292,0,0,1,1.575,7.193c1.511-.361,3.075-.474,4.6-.787A1.843,1.843,0,0,0,7.3,5.585c.776-1.454,1.378-3.013,2.19-4.442A2.12,2.12,0,0,1,10.99.115a2.158,2.158,0,0,1,1.488,1.05A43.618,43.618,0,0,1,14.53,5.41a1.528,1.528,0,0,0,1.388,1.058,36.636,36.636,0,0,1,4.606.741,2.24,2.24,0,0,1,1.431,1.158,2.157,2.157,0,0,1-.5,1.706c-1.037,1.213-2.188,2.321-3.33,3.429a1.564,1.564,0,0,0-.55,1.684c.337,1.46.532,2.957.742,4.446.113.8.316,1.821-.563,2.164a3.063,3.063,0,0,1-2.151-.159c-1.6-.711-3.132-2.259-4.683-2.246s-3.1,1.51-4.656,2.349-2.729.242-2.676-1.569" transform="translate(1 0.885)" fill="#f28c00"/>
  <rect id="Rectangle_1188" data-name="Rectangle 1188" width="24" height="24" fill="none"/>
</svg>
