<svg id="whatsapp" xmlns="http://www.w3.org/2000/svg" xmlns:xlink="http://www.w3.org/1999/xlink" width="36" height="36" viewBox="0 0 36 36">
  <defs>
    <clipPath id="clip-path">
      <rect id="Rectangle_884" data-name="Rectangle 884" width="32" height="32" fill="none"/>
    </clipPath>
  </defs>
  <g id="Group_1237" data-name="Group 1237" transform="translate(2 2)">
    <g id="Group_1236" data-name="Group 1236" clip-path="url(#clip-path)">
      <path id="Path_1126" data-name="Path 1126" d="M16,0H16A15.991,15.991,0,0,0,3.046,25.378L1.052,31.322,7.2,29.356A16,16,0,1,0,16,0" fill="#25d366"/>
      <path id="Path_1127" data-name="Path 1127" d="M26.99,24.424a4.514,4.514,0,0,1-3.14,2.258c-.836.178-1.928.32-5.6-1.2-4.7-1.948-7.729-6.726-7.965-7.036a9.131,9.131,0,0,1-1.9-4.826,5.1,5.1,0,0,1,1.636-3.894,2.318,2.318,0,0,1,1.634-.574c.2,0,.378.01.536.018.47.019.706.049,1.017.79.386.929,1.326,3.226,1.438,3.462a.945.945,0,0,1,.068.866,2.772,2.772,0,0,1-.517.734c-.236.272-.461.479-.7.772-.214.253-.46.526-.188.994a14.246,14.246,0,0,0,2.6,3.227,11.742,11.742,0,0,0,3.753,2.314,1.011,1.011,0,0,0,1.126-.178,19.226,19.226,0,0,0,1.25-1.656.893.893,0,0,1,1.148-.348c.432.15,2.718,1.28,3.188,1.514s.78.348.894.546a3.987,3.987,0,0,1-.274,2.22" transform="translate(-1.676 -1.83)" fill="#fafafa"/>
    </g>
  </g>
  <rect id="Rectangle_885" data-name="Rectangle 885" width="36" height="36" fill="none"/>
</svg>
