<svg id="youtube" xmlns="http://www.w3.org/2000/svg" xmlns:xlink="http://www.w3.org/1999/xlink" width="46" height="46" viewBox="0 0 46 46">
  <defs>
    <clipPath id="clip-path">
      <rect id="Rectangle_76" data-name="Rectangle 76" width="44" height="44" fill="#fff"/>
    </clipPath>
    <clipPath id="clip-path-2">
      <rect id="Rectangle_75" data-name="Rectangle 75" width="43.832" height="43.804" fill="#fff"/>
    </clipPath>
  </defs>
  <g id="Group_39" data-name="Group 39" transform="translate(1 1)">
    <g id="Group_38" data-name="Group 38" transform="translate(0 0)" clip-path="url(#clip-path)">
      <g id="Group_37" data-name="Group 37" transform="translate(0.167 0.196)">
        <g id="Group_36" data-name="Group 36" clip-path="url(#clip-path-2)">
          <g id="Group_35" data-name="Group 35">
            <g id="Group_34" data-name="Group 34" clip-path="url(#clip-path-2)">
              <path id="Path_43" data-name="Path 43" d="M44,20.544v3.082c-.029.123-.067.244-.084.367-.1.72-.15,1.447-.289,2.157A21.693,21.693,0,0,1,36.6,38.5,21.446,21.446,0,0,1,25.39,43.745c-.587.09-1.175.171-1.763.255h-3c-.139-.027-.275-.063-.415-.082-.748-.1-1.5-.157-2.243-.3A21.426,21.426,0,0,1,5.136,35.961,21.445,21.445,0,0,1,.471,18.468a20.413,20.413,0,0,1,4.5-10.059A21.541,21.541,0,0,1,25.12.383a20.35,20.35,0,0,1,9.9,4.015,21.616,21.616,0,0,1,8.634,13.829c.142.768.23,1.545.342,2.317m-21.934,9.77v0c2.453,0,4.907.019,7.361-.006a4.2,4.2,0,0,0,4.126-3.868c.1-2.793.126-5.592.025-8.384a4.226,4.226,0,0,0-4.518-4.195q-6.975-.007-13.95,0A5.29,5.29,0,0,0,13.841,14a4.335,4.335,0,0,0-3.285,4.4c-.011,2.454-.006,4.907,0,7.361a5.18,5.18,0,0,0,.093,1.063,4.308,4.308,0,0,0,4.27,3.491c2.381.017,4.764,0,7.146,0" transform="translate(-0.168 -0.196)" fill="#fff"/>
              <path id="Path_44" data-name="Path 44" d="M25.181,22.13,19.09,25.662V18.583l6.091,3.547" transform="translate(-0.205 -0.232)" fill="#fff"/>
            </g>
          </g>
        </g>
      </g>
    </g>
  </g>
  <rect id="Rectangle_1420" data-name="Rectangle 1420" width="46" height="46" fill="none"/>
</svg>
