<svg xmlns="http://www.w3.org/2000/svg" xmlns:xlink="http://www.w3.org/1999/xlink" width="100" height="100" viewBox="0 0 100 100">
  <defs>
    <clipPath id="clip-path">
      <rect id="Rectangle_1321" data-name="Rectangle 1321" width="49.827" height="49.919" transform="translate(0 0)" fill="#007699" stroke="#007699" stroke-width="0.5"/>
    </clipPath>
  </defs>
  <g id="Acupuncture_TCM" data-name="Acupuncture &amp; TCM" transform="translate(-363 -1781)">
    <circle id="Ellipse_1" data-name="Ellipse 1" cx="50" cy="50" r="50" transform="translate(363 1781)" fill="#e6f3f4"/>
    <g id="Group_1626" data-name="Group 1626" transform="translate(388.087 1806.041)">
      <g id="Group_1625" data-name="Group 1625" clip-path="url(#clip-path)">
        <path id="Path_1533" data-name="Path 1533" d="M1.094,49.919A1.792,1.792,0,0,1,.01,48.056C.039,43.379.06,38.7,0,34.025a1.572,1.572,0,0,1,2.412-1.483C4.34,33.573,6.327,34.494,8.29,35.46c.171.085.346.16.573.263.012-.2.029-.35.029-.5,0-1.429,0-2.858,0-4.287a1.463,1.463,0,1,1,2.918-.017c0,1.9.011,3.8-.007,5.7,0,.338.1.458.422.564a18.969,18.969,0,0,0,7,.944,18.475,18.475,0,0,0,6.937-1.72.622.622,0,0,0,.263-.474c.02-1.624.011-3.248.012-4.872,0-1.05.551-1.7,1.447-1.7.917-.006,1.473.644,1.473,1.725,0,1.183,0,2.365,0,3.629a22.627,22.627,0,0,1,8.776-2.4c0-.515-.005-.984,0-1.453a1.459,1.459,0,1,1,2.918-.011c.007.454,0,.907,0,1.434h.534c2.111,0,4.223.026,6.333-.013a2.082,2.082,0,0,1,1.907.791V49.139l-.975.78Zm1.863-2.957H46.962V35.228H41.053v.552q0,3.29,0,6.579a1.467,1.467,0,1,1-2.919-.009q0-3.265,0-6.53V35.3c-.2,0-.327-.01-.455,0a19.064,19.064,0,0,0-8.1,2.672.631.631,0,0,0-.21.472c-.017,1.365,0,2.729-.014,4.094a1.457,1.457,0,0,1-2.864.361,2.519,2.519,0,0,1-.05-.627c0-.9,0-1.8,0-2.767a22.286,22.286,0,0,1-14.56.655c-.03.065-.055.093-.055.122,0,.714,0,1.429-.009,2.144a1.462,1.462,0,1,1-2.919.006c-.005-1.007-.011-2.015.006-3.022a.516.516,0,0,0-.341-.551c-1.75-.848-3.492-1.714-5.238-2.572a3.508,3.508,0,0,0-.364-.128Z" fill="#007699" stroke="#007699" stroke-width="0.5"/>
        <path id="Path_1534" data-name="Path 1534" d="M49.827,22.239a2.026,2.026,0,0,1-1.857.792c-1.541-.045-3.085-.021-4.627-.005a1.411,1.411,0,0,0-.68.182,17.21,17.21,0,0,1-10.246,2.428,16.389,16.389,0,0,1-7.1-2.168,3.08,3.08,0,0,0-1.736-.461c-.973.039-1.947.01-3,.01v.577q0,5.042,0,10.084a1.419,1.419,0,0,1-.782,1.354,1.386,1.386,0,0,1-1.478-.068,1.457,1.457,0,0,1-.664-1.327q.009-5.018,0-10.035v-.589c-.566,0-1.1.027-1.626-.005A4.389,4.389,0,0,1,12.6,16.132a.409.409,0,0,1,.084-.119c.72-.479.568-1.056.252-1.709-.3-.61-.508-1.261-.748-1.9a4.384,4.384,0,0,1,2.143-5.737Q20.38,3.544,26.471.509A4.339,4.339,0,0,1,31.7,1.4q3.38,3.339,6.738,6.7a.978.978,0,0,0,.765.309c2.907-.01,5.814.014,8.72-.019a2.091,2.091,0,0,1,1.906.791ZM19.12,14.249c-.131-.375-.252-.706-.365-1.041a1.483,1.483,0,0,1,.985-2.053q2.915-1.006,5.84-1.984A1.471,1.471,0,0,1,27.6,10.2c.311.9.609,1.808.915,2.718a.872.872,0,0,0,.152-.05,1.477,1.477,0,1,1,1.757,2.372,7.176,7.176,0,0,1-4.955,1.929q-4.459,0-8.917,0a2.866,2.866,0,0,0-.768.087,1.4,1.4,0,0,0-.574,2.4,2.1,2.1,0,0,0,1.238.422c2.565.038,5.132.046,7.7,0a4.2,4.2,0,0,1,2.329.659,13.937,13.937,0,0,0,9.3,1.86A13.74,13.74,0,0,0,41.43,20.5a2.441,2.441,0,0,1,1.422-.406c1.218.024,2.436.009,3.654.007.156,0,.312-.014.459-.021V11.321c-2.8,0-5.557-.022-8.317.014a2.47,2.47,0,0,1-1.938-.791c-2.317-2.346-4.665-4.66-7-6.983a1.527,1.527,0,0,0-2.1-.337q-.3.15-.608.305-5.615,2.85-11.229,5.7a1.462,1.462,0,0,0-.886,1.986c.342.926.71,1.844,1.086,2.757a.478.478,0,0,0,.327.262c.924.021,1.848.012,2.826.012m6.117-1.862L22,13.5c.095.274.174.5.25.717h3.6c-.206-.625-.4-1.2-.6-1.828" fill="#007699" stroke="#007699" stroke-width="0.5"/>
      </g>
    </g>
  </g>
</svg>
