<svg id="Anxiety" xmlns="http://www.w3.org/2000/svg" xmlns:xlink="http://www.w3.org/1999/xlink" width="100" height="100" viewBox="0 0 100 100">
  <defs>
    <clipPath id="clip-path">
      <rect id="Rectangle_1353" data-name="Rectangle 1353" width="49.991" height="50" fill="#34aba4"/>
    </clipPath>
  </defs>
  <circle id="Ellipse_4" data-name="Ellipse 4" cx="50" cy="50" r="50" fill="#e6f3f4"/>
  <g id="Group_1653" data-name="Group 1653" transform="translate(25.005 25)">
    <g id="Group_1652" data-name="Group 1652" clip-path="url(#clip-path)">
      <path id="Path_1562" data-name="Path 1562" d="M33.4,50H12.018a1.636,1.636,0,0,1-1.073-1.9c.107-.887.16-1.78.249-2.669a23.091,23.091,0,0,0-.1-5.5,24.458,24.458,0,0,0-3.057-8.617A22.607,22.607,0,0,1,5.3,16.976a.979.979,0,0,0-.174-.647c-.591-.8-1.217-1.567-1.83-2.346Q1.829,12.123.367,10.262a1.43,1.43,0,0,1-.213-1.6,1.421,1.421,0,0,1,1.421-.837c.634.014,1.268,0,1.9,0H4.4C3.017,5.989,1.715,4.243.4,2.507A1.491,1.491,0,0,1,1.656.016c2.766.014,5.532.006,8.3.006a1.564,1.564,0,0,1,1.8,1.22l1.191,2.843c.129-.08.227-.133.317-.2A19.36,19.36,0,0,1,28.489.332a19.551,19.551,0,0,1,14.763,11.3,19.873,19.873,0,0,1,1.869,9.419,1.742,1.742,0,0,0,.255.9C46.9,24.441,48.45,26.92,49.991,29.4v.781a2.142,2.142,0,0,1-1.349,1.162c-1.119.418-2.22.88-3.333,1.326.351,1.913.644,3.789,1.046,5.641a4.515,4.515,0,0,1-4.632,5.658c-2.5-.119-5.006-.025-7.509-.025h-.54c.215,1.317.374,2.574.637,3.809A1.81,1.81,0,0,1,33.4,50M8.11,20.119l-.138.048c.092.952.149,1.91.283,2.856a22.191,22.191,0,0,0,2.807,7.729,24.71,24.71,0,0,1,3.117,14.157q-.079,1.061-.156,2.125H31.195c-.175-1.051-.344-2.055-.517-3.088H29.621c-.52,0-1.041.005-1.561,0a1.461,1.461,0,1,1,0-2.921q5.928-.007,11.858,0c.716,0,1.432.015,2.147-.006a1.443,1.443,0,0,0,1.469-1.542c-.09-.783-.269-1.556-.411-2.341a9.1,9.1,0,0,0-4.417.688c-1.019.469-1.866.25-2.252-.569a1.5,1.5,0,0,1,1.054-2.1,21.068,21.068,0,0,1,3.027-.859,14.294,14.294,0,0,1,2.038-.155c-.073-.434-.137-.85-.214-1.263-.354-1.9-.236-2.11,1.531-2.814.806-.321,1.608-.652,2.448-.992-1.009-1.612-1.917-3.212-2.974-4.708a6.487,6.487,0,0,1-1.214-4.177,16.029,16.029,0,0,0-1.769-7.756A17.1,17.1,0,0,0,14.475,6.658a.5.5,0,0,0-.166.724Q15.4,9.934,16.447,12.5a1.462,1.462,0,0,1-1.44,2.158c-.958,0-1.915,0-2.919,0,.028.2.044.355.074.509q.741,3.7,1.484,7.4a1.464,1.464,0,0,1-.975,1.785A1.43,1.43,0,0,1,11,23.788c-.966-1.22-1.924-2.446-2.886-3.669M4.5,10.756c1.691,2.151,3.3,4.2,4.961,6.309a1.336,1.336,0,0,0,.021-.248c-.206-1.05-.41-2.1-.625-3.149A1.474,1.474,0,0,1,10.4,11.736c.823,0,1.645,0,2.482,0a.9.9,0,0,0-.023-.191c-1.153-2.769-2.3-5.54-3.475-8.3a.606.606,0,0,0-.458-.284c-1.365-.023-2.731-.014-4.1-.012-.1,0-.208.018-.383.033.186.251.327.444.47.635l3.54,4.717A1.45,1.45,0,0,1,8.63,9.976a1.429,1.429,0,0,1-1.4.784c-.872-.014-1.745,0-2.727,0" fill="#34aba4"/>
      <path id="Path_1563" data-name="Path 1563" d="M23.307,11.736c-.133-.215-.221-.364-.316-.508-.674-1.015-1.354-2.027-2.025-3.045a1.47,1.47,0,0,1,1.263-2.306q3.368.009,6.735,0a1.4,1.4,0,0,1,1.4.933c1.308,3.251,2.618,6.5,3.9,9.763a1.43,1.43,0,0,1-1.383,1.988c-1.106.01-2.211,0-3.4,0v.527q0,2.854,0,5.71a1.468,1.468,0,0,1-2.775.773Q23.329,19.794,19.963,14A1.456,1.456,0,0,1,21.3,11.737c.644,0,1.288,0,2,0m.446,2.925c.944,1.616,1.829,3.131,2.713,4.646a12.8,12.8,0,0,0,.1-1.918c0-1.219.528-1.748,1.746-1.748h2.425c-.907-2.267-1.778-4.45-2.657-6.629a.344.344,0,0,0-.226-.2c-.949-.013-1.9-.008-2.918-.008.134.212.215.348.3.48q1.012,1.523,2.027,3.044A1.476,1.476,0,0,1,26,14.664c-.711-.011-1.423,0-2.242,0" fill="#007699"/>
      <path id="Path_1564" data-name="Path 1564" d="M8.11,20.119l-2.989-3.79c-.591-.8-1.217-1.567-1.83-2.346Q1.829,12.123.367,10.262a1.43,1.43,0,0,1-.213-1.6,1.421,1.421,0,0,1,1.421-.837c.634.014,1.268,0,1.9,0H4.4C3.017,5.989,1.715,4.243.4,2.507A1.491,1.491,0,0,1,1.656.016c2.766.014,5.532.006,8.3.006a1.564,1.564,0,0,1,1.8,1.22l1.191,2.843,1.361,3.3Q15.4,9.934,16.447,12.5a1.462,1.462,0,0,1-1.44,2.158c-.958,0-1.915,0-2.919,0,.028.2.044.355.074.509q.741,3.7,1.484,7.4a1.464,1.464,0,0,1-.975,1.785A1.43,1.43,0,0,1,11,23.788c-.966-1.22-1.924-2.446-2.886-3.669M4.5,10.756c1.691,2.151,3.3,4.2,4.961,6.309a1.336,1.336,0,0,0,.021-.248c-.206-1.05-.41-2.1-.625-3.149A1.474,1.474,0,0,1,10.4,11.736c.823,0,1.645,0,2.482,0a.9.9,0,0,0-.023-.191c-1.153-2.769-2.3-5.54-3.475-8.3a.606.606,0,0,0-.458-.284c-1.365-.023-2.731-.014-4.1-.012-.1,0-.208.018-.383.033.186.251.327.444.47.635l3.54,4.717A1.45,1.45,0,0,1,8.63,9.976a1.429,1.429,0,0,1-1.4.784c-.872-.014-1.745,0-2.727,0" fill="#007699"/>
    </g>
  </g>
</svg>
