<svg xmlns="http://www.w3.org/2000/svg" xmlns:xlink="http://www.w3.org/1999/xlink" width="100" height="100" viewBox="0 0 100 100">
  <defs>
    <clipPath id="clip-path">
      <rect id="Rectangle_1307" data-name="Rectangle 1307" width="49.939" height="50" fill="#007699"/>
    </clipPath>
  </defs>
  <g id="Clinical_psychology" data-name="Clinical psychology" transform="translate(-363 -1781)">
    <circle id="Ellipse_1" data-name="Ellipse 1" cx="50" cy="50" r="50" transform="translate(363 1781)" fill="#e6f3f4"/>
    <g id="Group_1611" data-name="Group 1611" transform="translate(388.03 1806)">
      <g id="Group_1610" data-name="Group 1610" clip-path="url(#clip-path)">
        <path id="Path_1511" data-name="Path 1511" d="M18.211,0h1.855a.888.888,0,0,0,.209.095A6.862,6.862,0,0,1,23.5,1.489c.517.408.973.894,1.464,1.351,0,0,.022,0,.03,0,.1-.105.2-.211.3-.321A7.309,7.309,0,0,1,28.906.247c.306-.086.615-.165.922-.247h1.855a1.942,1.942,0,0,0,.273.091A6.945,6.945,0,0,1,37.611,4.68a1.718,1.718,0,0,0,1.725,1.31,7.29,7.29,0,0,1,6.116,6.639,7.824,7.824,0,0,1-.627,3.619c.161.108.294.2.428.285a9.929,9.929,0,0,1,4.242,5.644c.205.693.3,1.42.444,2.131v1.367a1.7,1.7,0,0,0-.093.319,9.27,9.27,0,0,1-2.34,5.456c-.775.86-1.705,1.58-2.619,2.412,0,0,.037.122.082.24a7.333,7.333,0,0,1-6.6,10.006c-.327.014-.386.157-.463.419A7.347,7.347,0,0,1,25.33,47.512c-.128-.136-.251-.275-.388-.426-.128.145-.213.242-.3.338a7.077,7.077,0,0,1-6.977,2.413A7.034,7.034,0,0,1,12.1,44.87c-.188-.562-.371-.859-1-.783a2.555,2.555,0,0,1-.815-.121,7.34,7.34,0,0,1-5.339-9.937c.039-.1.068-.206.1-.31a10.074,10.074,0,0,1,.013-17.467c-.064-.17-.119-.321-.177-.47a6.966,6.966,0,0,1-.4-3.6,7.319,7.319,0,0,1,7.041-6.313c.287-.013.379-.117.449-.377A7.1,7.1,0,0,1,15.907.733,16.751,16.751,0,0,1,18.211,0M36.084,23.564H46.863c-1.16-3.79-3.652-5.646-7.515-5.676V14.911c.747.069,1.463.085,2.157.215.476.09.659-.061.8-.48a4.447,4.447,0,0,0-1.511-4.935,4.607,4.607,0,0,0-2.87-.914c-.89,0-1.779,0-2.716,0,0-.544.005-1.028,0-1.513a4.382,4.382,0,0,0-8.439-1.621,12.921,12.921,0,0,0-.431,1.726,4.944,4.944,0,0,1,5.117,4.632,4.684,4.684,0,0,1-.909,3.07,4.884,4.884,0,0,1-4.1,2.047v6.455h5.825c0,1.052-.007,2.057,0,3.061a1.944,1.944,0,0,0,1.916,2.041,1.924,1.924,0,0,0,1.9-2.047c0-.991,0-1.981,0-3.084m-12.591-.012V14.239c.07-.033.1-.058.126-.058.96-.005,1.919-.005,2.878-.013a1.872,1.872,0,0,0,2-1.868,1.9,1.9,0,0,0-2-1.939c-.846-.013-1.692,0-2.538,0h-.482c0-1.072.021-2.064,0-3.054a4.4,4.4,0,1,0-8.793.088c0,.451,0,.9,0,1.4-.975,0-1.9-.016-2.821,0a4.434,4.434,0,0,0-4.29,5.8c.154.475.358.609.868.51a20,20,0,0,1,2.115-.191v2.962c-3.883.045-6.383,1.893-7.515,5.665h7.814a4.869,4.869,0,0,1,1.387-3.6,4.714,4.714,0,0,1,3.544-1.471c2.67.038,4.31,1.78,4.813,5.074ZM14.684,41.186c0,.508,0,.944,0,1.38a4.381,4.381,0,1,0,8.761.045c-3.255-.566-4.882-2.085-5.009-4.714a4.6,4.6,0,0,1,.89-2.978,4.893,4.893,0,0,1,4.121-2.076V26.525H17.622v-.514c0-.878.015-1.757,0-2.635a1.9,1.9,0,0,0-1.95-1.938A1.874,1.874,0,0,0,13.81,23.4c-.005.814,0,1.627,0,2.441v.7H3.068a7.252,7.252,0,0,0,7.473,5.55v2.981c-.819-.082-1.593-.143-2.362-.245-.278-.037-.411.027-.508.288a4.333,4.333,0,0,0-.258,2.3,4.406,4.406,0,0,0,4.473,3.763c.909.015,1.819,0,2.8,0m20.525,0c.973,0,1.9.016,2.818,0a4.435,4.435,0,0,0,4.293-5.8c-.153-.472-.355-.613-.867-.514a20.231,20.231,0,0,1-2.116.194V32.1a7.237,7.237,0,0,0,7.482-5.527h-7.79a4.769,4.769,0,0,1-1.378,3.6,4.832,4.832,0,0,1-6.583.319,4.867,4.867,0,0,1-1.741-3.91H26.384v9.242c-1.066,0-2.074-.008-3.081,0a1.85,1.85,0,0,0-1.9,1.713A1.816,1.816,0,0,0,23,39.569a21,21,0,0,0,2.288.055c.366.005.732,0,1.121,0,0,1.051-.014,2.026,0,3a4.4,4.4,0,1,0,8.8-.03c0-.451,0-.9,0-1.409" fill="#007699"/>
      </g>
    </g>
  </g>
</svg>
