<svg xmlns="http://www.w3.org/2000/svg" xmlns:xlink="http://www.w3.org/1999/xlink" width="100" height="100" viewBox="0 0 100 100">
  <defs>
    <clipPath id="clip-path">
      <rect id="Rectangle_1285" data-name="Rectangle 1285" width="49.984" height="50" fill="#007699"/>
    </clipPath>
  </defs>
  <g id="Clinical_nutrition" data-name="Clinical nutrition" transform="translate(-363 -1781)">
    <circle id="Ellipse_1" data-name="Ellipse 1" cx="50" cy="50" r="50" transform="translate(363 1781)" fill="#e6f3f4"/>
    <g id="Group_1599" data-name="Group 1599" transform="translate(391 1806)">
      <g id="Group_1598" data-name="Group 1598" clip-path="url(#clip-path)">
        <path id="Path_1473" data-name="Path 1473" d="M12.788,0h8.591A1.711,1.711,0,0,1,22.46,1.865c-.045.615.009,1.236-.015,1.853a.544.544,0,0,0,.416.633A6.915,6.915,0,0,1,25.8,6.534a.87.87,0,0,0,.59.289c1.983.021,3.969.059,5.95,0a1.648,1.648,0,0,1,1.844,1.834c-.044,4.26-.019,8.521-.011,12.782,0,.173.037.426.153.508.691.49,1.41.941,2.146,1.422a9.054,9.054,0,0,1,2.514-2.374,9.409,9.409,0,0,1,5.657-1.272,1.472,1.472,0,0,1,1.5,1.415,9.536,9.536,0,0,1-.356,3.616c-.292.834-.673,1.636-1.021,2.47.087.043.217.106.346.173a8.747,8.747,0,0,1,4.411,5.1c.195.577.306,1.183.457,1.776v2.05a1.023,1.023,0,0,0-.1.214A22.452,22.452,0,0,1,42.3,48.9a4.263,4.263,0,0,1-5.556.145c-.112-.085-.23-.162-.349-.244a4.529,4.529,0,0,1-3.046,1.189q-15.862-.009-31.728,0A1.471,1.471,0,0,1,0,48.347V8.466A1.465,1.465,0,0,1,1.623,6.837c2.051,0,4.1.006,6.151-.012a.816.816,0,0,0,.562-.249A6.967,6.967,0,0,1,11.4,4.319a.43.43,0,0,0,.323-.5c-.015-.651.032-1.3-.014-1.952A1.713,1.713,0,0,1,12.788,0M28.541,47.04c-.173-.2-.286-.333-.4-.463a21.086,21.086,0,0,1-5.146-9.921,8.676,8.676,0,0,1,6.424-9.891c.59-.152,1.2-.217,1.8-.32V9.784H27.2c.034.2.059.373.093.545A1.476,1.476,0,0,1,25.763,12.2q-8.688,0-17.377,0a1.473,1.473,0,0,1-1.522-1.842c.034-.184.06-.37.093-.573h-4V47.04Zm3.072-17.614c-.434.051-.874.074-1.3.158a5.747,5.747,0,0,0-4.355,6.833,19.207,19.207,0,0,0,6.2,9.977c.972.846,1.4.854,2.428.1A3.819,3.819,0,0,1,35.79,45.9a2.9,2.9,0,0,1,2.7.753,1.315,1.315,0,0,0,1.858.032,19.481,19.481,0,0,0,6.5-10.122,5.764,5.764,0,0,0-3.989-6.9,1.184,1.184,0,0,0-1.054.134,4.7,4.7,0,0,1-1.094.529c-2.095.678-4.174,1.064-6.236-.19a5.6,5.6,0,0,0-2.862-.712M10.185,9.24H23.941a3.859,3.859,0,0,0-3.05-2.4,1.459,1.459,0,0,1-1.364-1.6c0-.758,0-1.517,0-2.31H14.683a1.445,1.445,0,0,0-.037.163q0,1.026-.005,2.05a1.485,1.485,0,0,1-1.413,1.7A3.99,3.99,0,0,0,10.185,9.24M43.116,22.707a5.438,5.438,0,0,0-5.165,5.187,5.345,5.345,0,0,0,5.165-5.187m-8.785,2.812-.145.059c-.082,1.337-.082,1.337.795,1.45-.237-.549-.444-1.029-.65-1.509" fill="#007699"/>
        <path id="Path_1474" data-name="Path 1474" d="M13.148,18.548c-1.95,0-3.9.006-5.85,0a1.46,1.46,0,0,1-.371-2.869,1.985,1.985,0,0,1,.529-.051q5.728,0,11.456,0a1.467,1.467,0,1,1-.011,2.923q-2.877,0-5.753,0" fill="#007699"/>
        <path id="Path_1475" data-name="Path 1475" d="M13.177,21.48h5.7a1.47,1.47,0,1,1,0,2.925H7.477a1.47,1.47,0,1,1,0-2.925h5.7" fill="#007699"/>
        <path id="Path_1476" data-name="Path 1476" d="M13.184,27.338h5.7a1.47,1.47,0,1,1-.012,2.925H7.468a1.47,1.47,0,1,1,.012-2.925h5.7" fill="#007699"/>
        <path id="Path_1477" data-name="Path 1477" d="M13.174,36.121q-2.852,0-5.7,0A1.469,1.469,0,1,1,7.48,33.2H18.888a1.469,1.469,0,1,1-.01,2.924q-2.852,0-5.7,0" fill="#007699"/>
        <path id="Path_1478" data-name="Path 1478" d="M13.166,39.054q2.877,0,5.753,0a1.465,1.465,0,1,1,.024,2.923q-5.777,0-11.554,0a1.463,1.463,0,1,1,.024-2.922q2.877,0,5.753,0" fill="#007699"/>
        <path id="Path_1479" data-name="Path 1479" d="M25.837,18.547c-.324,0-.649.008-.973,0a1.46,1.46,0,0,1,.016-2.92q1-.016,2,0a1.461,1.461,0,0,1-.016,2.921c-.341.008-.681,0-1.022,0" fill="#007699"/>
        <path id="Path_1480" data-name="Path 1480" d="M25.9,21.481c.324,0,.649-.006.973,0a1.461,1.461,0,0,1,0,2.921q-1,.02-1.995,0a1.461,1.461,0,0,1,0-2.921c.341-.007.681,0,1.022,0" fill="#007699"/>
      </g>
    </g>
  </g>
</svg>
