<svg xmlns="http://www.w3.org/2000/svg" xmlns:xlink="http://www.w3.org/1999/xlink" width="100" height="100" viewBox="0 0 100 100">
  <defs>
    <clipPath id="clip-path">
      <rect id="Rectangle_1308" data-name="Rectangle 1308" width="49.994" height="50" fill="#007699"/>
    </clipPath>
  </defs>
  <g id="Counselling" transform="translate(-363 -1781)">
    <circle id="Ellipse_1" data-name="Ellipse 1" cx="50" cy="50" r="50" transform="translate(363 1781)" fill="#e6f3f4"/>
    <g id="Group_1616" data-name="Group 1616" transform="translate(388.003 1806)">
      <g id="Group_1615" data-name="Group 1615" clip-path="url(#clip-path)">
        <path id="Path_1516" data-name="Path 1516" d="M49.994,48.918a1.75,1.75,0,0,0-.1.156,1.473,1.473,0,0,1-2.817-.305c-.333-1.3-.656-2.611-.98-3.917-.179-.72-.175-.72-.9-.72H35.886c-.286,1.034-.517,2.047-.849,3.027a4.342,4.342,0,0,1-4.3,2.827,4.446,4.446,0,0,1-4-3.183,4.607,4.607,0,0,1-.018-2.405c.931-3.763,1.856-7.528,2.828-11.281a18.374,18.374,0,0,1,.9-2.242,10.956,10.956,0,0,1-.755-1.618,4.351,4.351,0,0,1,4.123-5.621c.927-.021,1.855-.016,2.782,0a.556.556,0,0,0,.6-.357c.493-1.037,1.015-2.061,1.524-3.088a5.882,5.882,0,1,1,6.805-1.382,5.011,5.011,0,0,1,1.493,2.6c.653,2.662,1.323,5.32,1.988,7.98q.489,1.954.981,3.907v1.27a1.032,1.032,0,0,0-.1.207,4.231,4.231,0,0,1-2.15,2.921.46.46,0,0,0-.263.617c.5,1.945.973,3.9,1.468,5.842.338,1.331.7,2.657,1.044,3.985ZM40.828,35.345c1.5,0,2.994,0,4.49,0a1.509,1.509,0,0,0,1.636-2.067q-1.4-5.643-2.827-11.28a2.006,2.006,0,0,0-.316-.7,1.442,1.442,0,0,0-2.5.344c-.67,1.3-1.315,2.608-1.96,3.919a1.631,1.631,0,0,1-1.626,1.006c-1.236-.025-2.473-.012-3.709,0a1.509,1.509,0,0,0-1.493.965,1.468,1.468,0,0,0,1.5,1.959c1.805.013,3.611,0,5.417.008A1.778,1.778,0,0,0,41.1,28.6a1.419,1.419,0,0,1,2.025-.515,1.461,1.461,0,0,1,.467,2.045,4.251,4.251,0,0,1-3.825,2.281c-1.887.024-3.774,0-5.662.008a1.515,1.515,0,0,0-1.661,1.209q-1.469,5.828-2.9,11.662a1.412,1.412,0,0,0,1.019,1.7,1.466,1.466,0,0,0,1.859-1.239q1.126-4.507,2.251-9.017a1.563,1.563,0,0,1,1.763-1.383q2.2,0,4.393,0m3.3-20.5A2.924,2.924,0,1,0,41.2,17.766a2.975,2.975,0,0,0,2.931-2.918M45.17,41.18c-.214-.852-.442-1.674-.617-2.507-.07-.329-.209-.408-.52-.406-2.129.012-4.258.006-6.386.008-.109,0-.218.019-.332.03-.239.961-.474,1.9-.717,2.875Z" fill="#007699"/>
        <path id="Path_1517" data-name="Path 1517" d="M31.541,0A5.481,5.481,0,0,1,33.73,1a4.188,4.188,0,0,1,1.6,3.166,29.361,29.361,0,0,1-.1,4.186,3.952,3.952,0,0,1-2.471,3.16.507.507,0,0,0-.348.544c.015,1.351-.005,2.7.012,4.052a1.5,1.5,0,0,1-2.659,1.1c-1.692-1.668-3.382-3.338-5.091-4.988a1.144,1.144,0,0,0-.709-.293c-1.594-.026-3.189-.009-4.784-.014a4.394,4.394,0,0,1-4.528-4.525q-.008-1.44,0-2.88A4.374,4.374,0,0,1,18.282.077.932.932,0,0,0,18.457,0ZM29.3,12.805l.193-.133c0-.713,0-1.425,0-2.138A1.448,1.448,0,0,1,30.9,8.985a1.5,1.5,0,0,0,1.517-1.619c.01-.926.008-1.853,0-2.78A1.512,1.512,0,0,0,30.746,2.93q-5.755-.008-11.512,0A1.51,1.51,0,0,0,17.578,4.6c-.006.862,0,1.723,0,2.585,0,1.234.557,1.795,1.779,1.8,1.708,0,3.416.031,5.122-.014a2.333,2.333,0,0,1,1.94.794c.939,1.032,1.919,2.029,2.881,3.04" fill="#007699"/>
        <path id="Path_1518" data-name="Path 1518" d="M14.111,44.145H4.086q-.385,1.531-.769,3.06c-.134.535-.256,1.073-.4,1.6A1.5,1.5,0,0,1,1.1,49.951,1.484,1.484,0,0,1,.068,48.079Q1.276,43.214,2.5,38.355c.069-.271.109-.452-.208-.632A4.339,4.339,0,0,1,.146,32.744c.933-3.78,1.887-7.554,2.828-11.332a4.706,4.706,0,0,1,1.513-2.591,5.774,5.774,0,0,1-1.348-5.5A5.634,5.634,0,0,1,5.728,9.853a5.868,5.868,0,0,1,7.958,1.755,5.942,5.942,0,0,1-2.417,8.583c.546,1.1,1.086,2.2,1.653,3.293.049.1.275.138.42.141.862.012,1.724,0,2.586.006a4.269,4.269,0,0,1,4.153,2.544,4.2,4.2,0,0,1-.511,4.546c-.048.064-.091.132-.151.22,1.157,1.412,1.258,3.2,1.7,4.862.758,2.853,1.451,5.723,2.156,8.589A4.387,4.387,0,0,1,15,47.256c-.358-1-.589-2.054-.885-3.111m-.922-14.658c.911,0,1.822.011,2.733-.007a2.232,2.232,0,0,0,.8-.157,1.406,1.406,0,0,0,.818-1.557,1.456,1.456,0,0,0-1.453-1.2c-1.252-.019-2.505-.029-3.757,0a1.674,1.674,0,0,1-1.7-1.045c-.624-1.285-1.274-2.557-1.92-3.831a1.472,1.472,0,0,0-2.845.3Q4.451,27.63,3.048,33.273a2.172,2.172,0,0,0-.077.814,1.481,1.481,0,0,0,1.653,1.257q4.49.006,8.98,0a1.543,1.543,0,0,1,1.711,1.329q.548,2.171,1.083,4.343c.395,1.59.786,3.181,1.187,4.769a1.463,1.463,0,0,0,2.072,1.119,1.519,1.519,0,0,0,.734-1.947Q19,39.414,17.606,33.87a1.6,1.6,0,0,0-1.856-1.455c-1.838,0-3.677.017-5.515-.006a4.233,4.233,0,0,1-3.8-2.234,1.463,1.463,0,0,1,.432-2.087,1.428,1.428,0,0,1,2.054.546,1.739,1.739,0,0,0,1.634.856c.878-.013,1.757,0,2.635,0M8.8,17.766a2.925,2.925,0,0,0-.013-5.85,2.925,2.925,0,1,0,.013,5.85M4.83,41.177H13.4c-.248-.986-.486-1.937-.729-2.9-2.311,0-4.585,0-6.858.009a.4.4,0,0,0-.311.209c-.235.875-.444,1.756-.672,2.685" fill="#007699"/>
      </g>
    </g>
  </g>
</svg>
