<svg xmlns="http://www.w3.org/2000/svg" xmlns:xlink="http://www.w3.org/1999/xlink" width="100" height="100" viewBox="0 0 100 100">
  <defs>
    <clipPath id="clip-path">
      <rect id="Rectangle_1320" data-name="Rectangle 1320" width="50" height="46.091" transform="translate(0 0)" fill="#007699"/>
    </clipPath>
  </defs>
  <g id="CranioSacral_Therapy_Energy_treatments" data-name="CranioSacral Therapy &amp; Energy treatments" transform="translate(-363 -1781)">
    <circle id="Ellipse_1" data-name="Ellipse 1" cx="50" cy="50" r="50" transform="translate(363 1781)" fill="#e6f3f4"/>
    <g id="Group_1624" data-name="Group 1624" transform="translate(388 1807.955)">
      <g id="Group_1623" data-name="Group 1623" clip-path="url(#clip-path)">
        <path id="Path_1531" data-name="Path 1531" d="M50,0V33.7c-.421.515-.849,1.025-1.263,1.545-2.424,3.039-4.828,6.1-7.275,9.116a4.3,4.3,0,0,1-4.476,1.615,4.361,4.361,0,0,1-3.4-3.151c-.037-.117-.089-.229-.132-.339a17.4,17.4,0,0,1-16.922-.005c-.037.1-.07.174-.093.25a4.36,4.36,0,0,1-3.427,3.245,4.336,4.336,0,0,1-4.569-1.713c-2.73-3.44-5.475-6.868-8.2-10.313A1.286,1.286,0,0,1,.01,33.2Q-.006,16.893,0,.588V.05H10.971V3.174a.521.521,0,0,0,.148-.011c.1-.057.193-.119.289-.18a18.416,18.416,0,0,1,9.9-2.961c2.49-.028,4.98-.032,7.469,0a18.285,18.285,0,0,1,9.764,2.926c.14.089.287.169.521.305V.019H39.7L50,0M12.771,18.5c.106.189.213.352.29.528a4.065,4.065,0,0,1,.546,1.37c.045,3.662.026,7.324.024,10.986A4.077,4.077,0,0,1,12.8,34.03a.566.566,0,0,0-.03.766,14.184,14.184,0,0,0,14.489,6.729,13.959,13.959,0,0,0,9.991-6.787c.127-.206.211-.364.015-.6a4.25,4.25,0,0,1-.9-2.817c0-3.613,0-7.226.011-10.839a2.03,2.03,0,0,1,.222-.823c.211-.447.472-.871.712-1.3a5.486,5.486,0,0,0-3.561-1.263,11.107,11.107,0,0,1-7-2.578c-.651-.53-1.269-1.1-1.889-1.641A11.277,11.277,0,0,1,16.1,17.119,5.187,5.187,0,0,0,12.771,18.5m26.051-2.717a3.551,3.551,0,0,0,.2-.79q.021-3.807,0-7.613a.8.8,0,0,0-.225-.544A14.627,14.627,0,0,0,29.81,3.052c-2.775-.148-5.562-.1-8.343-.08A15.472,15.472,0,0,0,11.31,6.72a.87.87,0,0,0-.354.743c.015,2.472,0,4.945.019,7.418a4.746,4.746,0,0,0,.264,1.045,8.507,8.507,0,0,1,3.608-1.607c.83-.143,1.69-.114,2.516-.27a7.726,7.726,0,0,0,5.982-4.41.662.662,0,0,1,.74-.449,17.353,17.353,0,0,0,1.853,0,.636.636,0,0,1,.7.424,7.68,7.68,0,0,0,6.983,4.517,9.59,9.59,0,0,1,5.2,1.651M41.982,3v.637c0,3.97.006,7.94-.011,11.91a2.136,2.136,0,0,1-.255.957c-.708,1.316-1.458,2.61-2.171,3.923a1.708,1.708,0,0,0-.2.778c-.014,2.9-.009,5.792-.008,8.689,0,.6-.014,1.2.012,1.805a1.1,1.1,0,0,0,.979,1.045,1.118,1.118,0,0,0,1.282-.8,2.49,2.49,0,0,0,.079-.673q.009-3.149,0-6.3v-.546h2.917c.006.127.015.222.015.317q0,3.467,0,6.932a2.973,2.973,0,0,1-.045.533A4.115,4.115,0,0,1,41,35.691a1.029,1.029,0,0,0-.6.242q-1.909,2.346-3.771,4.731a1.439,1.439,0,0,0-.106,1.613,1.492,1.492,0,0,0,1.331.85,1.69,1.69,0,0,0,1.445-.759c2.5-3.148,5.006-6.285,7.5-9.438a1.361,1.361,0,0,0,.264-.788q.02-14.3.011-28.6V3ZM8.307,24.42v2.766c0,1.416-.008,2.831,0,4.247a1.179,1.179,0,0,0,1.329,1.314,1.153,1.153,0,0,0,1.023-1.309q0-5.15-.007-10.3a1.491,1.491,0,0,0-.186-.684c-.74-1.354-1.508-2.693-2.245-4.048a1.718,1.718,0,0,1-.2-.778q-.018-6-.009-12.009V3.008H2.926v.5q0,14.328.012,28.655a1.365,1.365,0,0,0,.276.782C4.808,34.977,6.425,37,8.035,39.019q1.383,1.737,2.767,3.473a1.531,1.531,0,0,0,1.692.577,1.509,1.509,0,0,0,1.145-1.317,1.72,1.72,0,0,0-.481-1.38c-1.078-1.346-2.166-2.683-3.217-4.05A1.609,1.609,0,0,0,8.8,35.638a4.055,4.055,0,0,1-3.413-3.881c-.024-2.343-.007-4.687-.007-7.03,0-.094.015-.187.024-.307Z" fill="#007699"/>
        <path id="Path_1532" data-name="Path 1532" d="M20.416,32.463l2.144-1.925a3.372,3.372,0,0,0,4.873,0l2.127,1.9a6.084,6.084,0,0,1-9.144.025" fill="#007699"/>
      </g>
    </g>
  </g>
</svg>
