<svg id="Detox" xmlns="http://www.w3.org/2000/svg" xmlns:xlink="http://www.w3.org/1999/xlink" width="100" height="100" viewBox="0 0 100 100">
  <defs>
    <clipPath id="clip-path">
      <rect id="Rectangle_1358" data-name="Rectangle 1358" width="35.339" height="50" fill="#34aba4"/>
    </clipPath>
  </defs>
  <circle id="Ellipse_4" data-name="Ellipse 4" cx="50" cy="50" r="50" fill="#e6f3f4"/>
  <g id="Group_1661" data-name="Group 1661" transform="translate(32.33 25)">
    <g id="Group_1660" data-name="Group 1660" clip-path="url(#clip-path)">
      <path id="Path_1582" data-name="Path 1582" d="M29.485,0c-.01,1.382-.024,2.765-.031,4.147-.005,1.04,0,2.08,0,3.15.476.106.936.184,1.382.312a6.182,6.182,0,0,1,4.489,5.853q.027,15.208,0,30.419A6.2,6.2,0,0,1,29.119,50Q17.67,50,6.219,50A6.214,6.214,0,0,1,.011,43.832q-.023-15.161,0-30.321A6.225,6.225,0,0,1,5.356,7.418c.16-.023.318-.059.461-.086.026-.052.053-.081.053-.11Q5.862,3.612,5.853,0ZM3.012,19.669c-.017.352-.031.495-.031.639q0,11.619,0,23.237a4.249,4.249,0,0,0,.1,1.015,3.28,3.28,0,0,0,3.4,2.5c7.421,0,14.841-.02,22.262.015a3.456,3.456,0,0,0,3.628-3.618c-.045-7.7-.017-15.394-.017-23.091v-.671c-.528.195-.956.319-1.354.507a16.543,16.543,0,0,1-1.683.867,5.511,5.511,0,0,1-5.106-.714,2.441,2.441,0,0,0-1.925-.511,5.787,5.787,0,0,0-1.592.669,5.588,5.588,0,0,1-6.046-.006,5.339,5.339,0,0,0-1.024-.556,2.552,2.552,0,0,0-2.33.3,5.943,5.943,0,0,1-3.412,1.134,6.119,6.119,0,0,1-3.341-1.051,10.854,10.854,0,0,0-1.533-.665m.035-2.8a6.368,6.368,0,0,1,3.685,1.3,1.84,1.84,0,0,0,.644.2,2.613,2.613,0,0,0,2-.408,5.818,5.818,0,0,1,2.737-1.072,5.677,5.677,0,0,1,3.929.995,2.554,2.554,0,0,0,2.168.468,4.9,4.9,0,0,0,1.27-.585,5.505,5.505,0,0,1,6.206.034A2.938,2.938,0,0,0,29.26,17.8,4.837,4.837,0,0,1,32,16.885c.269,0,.37-.106.366-.38-.016-1.057.051-2.121-.047-3.17a3.921,3.921,0,0,0-.595-1.661A2.776,2.776,0,0,0,29.3,10.333q-11.62-.023-23.24,0a2.987,2.987,0,0,0-2.981,2.538,32.711,32.711,0,0,0-.034,3.994m23.4-13.9H8.9V7.317H26.444Z" fill="#34aba4"/>
      <path id="Path_1583" data-name="Path 1583" d="M26.527,25c-.167,2.989.309,5.944-.556,8.834a12.3,12.3,0,0,1-10.706,8.726c-2.1.151-4.222.025-6.377.025a1.178,1.178,0,0,1-.049-.262c.008-1.887-.073-3.78.051-5.66a12.048,12.048,0,0,1,6.526-10.2A11.6,11.6,0,0,1,21.257,25c1.723.01,3.445,0,5.27,0M14,39.555l.061.195a23.115,23.115,0,0,0,2.33-.35,9.4,9.4,0,0,0,7.114-8.382c.084-1.009.012-2.032.012-3.022-3.55-.321-6.741.305-9.225,3.018A9.237,9.237,0,0,0,11.8,37.439l.136.1,6.081-6.142c.715.711,1.389,1.383,2.078,2.07L14,39.555" fill="#007699"/>
    </g>
  </g>
</svg>
