<svg id="Food_intolerances" data-name="Food intolerances" xmlns="http://www.w3.org/2000/svg" xmlns:xlink="http://www.w3.org/1999/xlink" width="100" height="100" viewBox="0 0 100 100">
  <defs>
    <clipPath id="clip-path">
      <rect id="Rectangle_1357" data-name="Rectangle 1357" width="44.156" height="50" fill="#34aba4"/>
    </clipPath>
  </defs>
  <circle id="Ellipse_4" data-name="Ellipse 4" cx="50" cy="50" r="50" fill="#e6f3f4"/>
  <g id="Group_1659" data-name="Group 1659" transform="translate(27.922 25)">
    <g id="Group_1658" data-name="Group 1658" clip-path="url(#clip-path)">
      <path id="Path_1579" data-name="Path 1579" d="M13.2,50c-.524-.1-1.049-.186-1.572-.287A14.478,14.478,0,0,1,1.149,29.869a12.7,12.7,0,0,0,.95-3.31,11.235,11.235,0,0,0-.766-5.966A15.555,15.555,0,0,1,.2,16.879,14.159,14.159,0,0,1,2.436,6.464,14.119,14.119,0,0,1,11.858.245a14.478,14.478,0,0,1,16.371,9.7,14.125,14.125,0,0,1-.377,10.1,12.793,12.793,0,0,0-1.1,5.152,11.4,11.4,0,0,0,.838,4.127c.152.375.314.746.473,1.121a10.474,10.474,0,1,1-2.888,14.942c-.081.072-.165.137-.238.213a14.009,14.009,0,0,1-7.764,4.174c-.476.09-.958.151-1.437.226Zm20.5-3.206a7.517,7.517,0,1,0-7.514-7.542A7.518,7.518,0,0,0,33.7,46.794M10.731,35.732h7.445a25.475,25.475,0,0,0-.232-4.2q-.275-2.27-.553-4.539c-.02-.169-.046-.337-.069-.5H11.65c-.014.094-.028.171-.037.248-.246,2.013-.513,4.024-.727,6.04-.1.965-.1,1.94-.155,2.953m.05-21.35c-.129,3.127.728,6.1.849,9.144h5.713c.02-.237.04-.46.058-.683.044-.534.069-1.071.133-1.6.2-1.644.435-3.283.611-4.929a18.51,18.51,0,0,0,.011-1.929Zm7.2-2.973a4.418,4.418,0,0,0,0-.546,19.425,19.425,0,0,0-1.4-5.4,6.362,6.362,0,0,0-1.223-1.922c-.641-.653-1.133-.69-1.73-.01A7.753,7.753,0,0,0,12.525,5.18a16.973,16.973,0,0,0-1.478,5.271c-.045.312-.073.627-.11.958Zm.047,27.342H10.943c.038.3.067.55.1.805a18.252,18.252,0,0,0,1.385,5.1,5.73,5.73,0,0,0,1.33,1.964.912.912,0,0,0,1.421.029,1.726,1.726,0,0,0,.345-.343,13.311,13.311,0,0,0,.885-1.394A16.039,16.039,0,0,0,17.8,40.367c.09-.524.155-1.052.237-1.616M7.762,35.739c.016-.02.053-.043.055-.069.011-.13.017-.26.016-.389A35.091,35.091,0,0,1,8.38,29.37c.155-.94.211-1.9.315-2.875H5.11c-.032.149-.074.288-.091.43A16.032,16.032,0,0,1,3.9,30.943,17.11,17.11,0,0,0,3.2,33.116a8.223,8.223,0,0,0-.239,2.623Zm13.4-21.351c-.011.121-.026.2-.025.28a43.717,43.717,0,0,1-.688,6.971c-.092.616-.1,1.245-.15,1.872h3.564a1.443,1.443,0,0,0,.059-.215,15.085,15.085,0,0,1,1.126-4.163,15.413,15.413,0,0,0,.591-1.7,9.059,9.059,0,0,0,.351-3.048ZM5.088,23.514H8.7c-.111-1-.18-1.975-.334-2.932a34.405,34.405,0,0,1-.536-5.665c0-.173,0-.346,0-.525H2.96c-.006.126-.016.221-.014.316a10.462,10.462,0,0,0,.777,3.938,16.631,16.631,0,0,1,1.365,4.868m15.179,2.974c.1.952.162,1.857.3,2.751a35.013,35.013,0,0,1,.546,5.126c0,.451,0,.9,0,1.367h2.748A10.542,10.542,0,0,1,25.513,32.8a.506.506,0,0,0,.057-.545c-.164-.457-.325-.917-.514-1.364a14.7,14.7,0,0,1-.958-3c-.088-.46-.16-.923-.241-1.4ZM3.348,11.411H7.959A24.991,24.991,0,0,1,9.732,4.017a11.444,11.444,0,0,0-6.384,7.394m15.9-7.439c.388,1.248.822,2.436,1.119,3.657.3,1.238.468,2.508.7,3.783h4.55a11.7,11.7,0,0,0-6.366-7.44M7.981,38.749H3.459c.415,2.669,3.988,6.754,6.333,7.227a23.443,23.443,0,0,1-1.811-7.227m11.155,7.332a.966.966,0,0,0,.19-.028,10.937,10.937,0,0,0,4.256-3.39.526.526,0,0,0,.061-.536,9.607,9.607,0,0,1-.386-2.929c0-.142,0-.285,0-.455H21a23.214,23.214,0,0,1-1.864,7.338" fill="#34aba4"/>
      <path id="Path_1580" data-name="Path 1580" d="M36.031,43.7,33.71,41.362l-2.282,2.281-2.075-2.079c.71-.706,1.48-1.47,2.284-2.271l-2.345-2.25,2.11-2.108c.711.721,1.472,1.492,2.265,2.294l2.251-2.374,2.148,2.15-2.21,2.212,2.255,2.246a10.341,10.341,0,0,1-2.08,2.238" fill="#007699"/>
      <path id="Path_1581" data-name="Path 1581" d="M24.94,45.6c.072-.076.156-.141.237-.213-5.706-9.454,2.889-14.941,2.889-14.941a10.473,10.473,0,1,1-2.889,14.941M33.7,46.794a7.517,7.517,0,1,0-7.515-7.542A7.517,7.517,0,0,0,33.7,46.794" fill="#007699"/>
    </g>
  </g>
</svg>
