<svg xmlns="http://www.w3.org/2000/svg" xmlns:xlink="http://www.w3.org/1999/xlink" width="100" height="100" viewBox="0 0 100 100">
  <defs>
    <clipPath id="clip-path">
      <rect id="Rectangle_1286" data-name="Rectangle 1286" width="50" height="49.99" transform="translate(0 0)" fill="#007699"/>
    </clipPath>
  </defs>
  <g id="Functional_medicine" data-name="Functional medicine" transform="translate(-363 -1781)">
    <circle id="Ellipse_1" data-name="Ellipse 1" cx="50" cy="50" r="50" transform="translate(363 1781)" fill="#e6f3f4"/>
    <g id="Group_1601" data-name="Group 1601" transform="translate(393 1806.005)">
      <g id="Group_1600" data-name="Group 1600" clip-path="url(#clip-path)">
        <path id="Path_1481" data-name="Path 1481" d="M4.8,0H29.6c.034.03.063.075.1.09a3.165,3.165,0,0,1,2.24,3.182q0,2.66,0,5.318a2.95,2.95,0,0,1-3.01,3.024c-.287,0-.574,0-.858,0v3.323c.652,0,1.269,0,1.885,0A4.451,4.451,0,0,1,34.3,19.29c-.068,4.406-.019,8.814-.019,13.221v.5c1.51-1.36,2.882-2.77,4.281-4.152a6.3,6.3,0,0,1,4.3-1.806c3.5-.158,6.366,2.917,6.937,5.345.063.266.134.531.2.8v1.66a1.764,1.764,0,0,0-.094.273,6.238,6.238,0,0,1-1.776,3.454C44.961,41.758,41.8,44.951,38.6,48.1a6.329,6.329,0,0,1-6.575,1.577,1.359,1.359,0,0,0-.554-.007,13.053,13.053,0,0,1-1.859.3c-6.491.023-12.982.014-19.473.014-1.887,0-3.774.026-5.661-.009A4.83,4.83,0,0,1,0,45.474C.051,36.739.02,28,.023,19.266a4.038,4.038,0,0,1,.06-.823,4.714,4.714,0,0,1,4.354-3.5c.564-.011,1.129,0,1.7,0V11.615c-.257,0-.483,0-.708,0a2.954,2.954,0,0,1-2.969-2.97c0-1.839.005-3.677,0-5.515a3.2,3.2,0,0,1,.557-1.784A3.719,3.719,0,0,1,4.8,0M28.458,47.054c-.116-.176-.175-.27-.238-.361a6.4,6.4,0,0,1,.338-7.79c.764-.9,1.667-1.691,2.479-2.556a1.139,1.139,0,0,0,.306-.705c.017-5.433.009-10.866.02-16.3a1.18,1.18,0,0,0-.609-1.137,2.72,2.72,0,0,0-1.19-.329q-12.322-.027-24.645-.014c-.081,0-.163,0-.244,0a1.681,1.681,0,0,0-1.728,1.793q0,12.812-.01,25.622a1.573,1.573,0,0,0,.624,1.3,2.086,2.086,0,0,0,1.392.479q11.493-.01,22.986,0h.519m6.433-10.245c-1.366,1.331-2.76,2.625-4.075,4a3.144,3.144,0,0,0-.767,2.674,4.069,4.069,0,0,0,1.4,2.438,3.53,3.53,0,0,0,5.176.009c.72-.706,1.424-1.427,2.14-2.136.527-.521,1.061-1.034,1.579-1.537l-5.449-5.444m2.15-2.2c1.8,1.8,3.615,3.615,5.393,5.393,1.242-1.214,2.536-2.445,3.782-3.723a3.121,3.121,0,0,0,.656-1.176,4.076,4.076,0,0,0-2.825-4.956,3.24,3.24,0,0,0-3.311.721c-1.272,1.2-2.468,2.491-3.695,3.741M25.068,11.648H9.135v3.279H25.068ZM15.7,2.965H11.947v5.7H15.7Zm13.31,5.7c0-1.84.006-3.641-.018-5.441,0-.1-.245-.275-.385-.284-.534-.033-1.072-.013-1.608-.013H25.224V8.665Zm-6.78-5.713H18.693V8.664h3.539ZM5.388,8.658H8.934V2.927c-1.1,0-2.153-.011-3.209.016a.488.488,0,0,0-.323.348c-.021,1.772-.014,3.544-.014,5.367" fill="#007699"/>
        <path id="Path_1482" data-name="Path 1482" d="M18.664,30.978h3.263c.5,0,1.008-.007,1.512,0a1.483,1.483,0,1,1,.023,2.961c-1.479.022-2.96.006-4.44.008-.1,0-.193.012-.358.023v.521c0,1.415,0,2.83,0,4.245a1.465,1.465,0,1,1-2.923-.008c0-1.415,0-2.83,0-4.245v-.537h-.707c-1.317,0-2.635,0-3.952,0a1.5,1.5,0,1,1-.009-2.967c1.366,0,2.732,0,4.1,0h.569V29.033c0-.976-.008-1.952,0-2.928a1.461,1.461,0,1,1,2.921.009c.009,1.431,0,2.862,0,4.294v.57" fill="#007699"/>
      </g>
    </g>
  </g>
</svg>
