<svg xmlns="http://www.w3.org/2000/svg" xmlns:xlink="http://www.w3.org/1999/xlink" width="100" height="100" viewBox="0 0 100 100">
  <defs>
    <clipPath id="clip-path">
      <rect id="Rectangle_1322" data-name="Rectangle 1322" width="49.986" height="50" fill="#007699"/>
    </clipPath>
  </defs>
  <g id="GP_services" data-name="GP services" transform="translate(-363 -1781)">
    <circle id="Ellipse_1" data-name="Ellipse 1" cx="50" cy="50" r="50" transform="translate(363 1781)" fill="#e6f3f4"/>
    <g id="Group_1628" data-name="Group 1628" transform="translate(388.007 1806)">
      <g id="Group_1627" data-name="Group 1627" clip-path="url(#clip-path)">
        <path id="Path_1535" data-name="Path 1535" d="M11.6,50q-2.448-3.16-4.9-6.32Q3.472,39.521.236,35.363a1.161,1.161,0,0,1-.225-.657Q-.007,25.554,0,16.4a4.483,4.483,0,0,1,8.954-.437c.032,2,.006,4,.006,6.028a12.771,12.771,0,0,1,1.34-.214,4.422,4.422,0,0,1,4.439,2.492c.983,1.832,1.969,3.665,2.855,5.544a6.493,6.493,0,0,0,2.429,2.774c.273.176.534.373.813.539a10.9,10.9,0,0,1,4.055,3.54,31.552,31.552,0,0,1,2.263-2.225,25.81,25.81,0,0,1,2.6-1.726A6.767,6.767,0,0,0,32.4,29.759c.817-1.767,1.805-3.454,2.65-5.209a4.678,4.678,0,0,1,5.722-2.567,1.608,1.608,0,0,0,.224.031c0-1.953,0-3.888,0-5.823a4.471,4.471,0,0,1,5.963-4.174,4.328,4.328,0,0,1,2.923,3.48,2.839,2.839,0,0,0,.1.322V35.156a2.127,2.127,0,0,0-.21.191q-4.956,5.829-9.907,11.661C39.031,48,38.214,49,37.387,50Zm-.782-13.066c-.1-.185-.193-.336-.272-.492C9.269,33.889,8,31.328,6.7,28.785a5.931,5.931,0,0,1-.669-2.807c.022-3.206.012-6.412.007-9.617a1.543,1.543,0,1,0-3.068.095q0,8.616.01,17.232a1.311,1.311,0,0,0,.263.745q4.785,6.17,9.591,12.322a.767.767,0,0,0,.695.323q4.734-.013,9.47-.006h.489a2.221,2.221,0,0,0,.03-.231c0-1.741.049-3.484-.017-5.222a6.215,6.215,0,0,0-2.931-5.176c-.744-.494-1.5-.966-2.251-1.457a8.764,8.764,0,0,1-3.285-3.7c-.878-1.9-1.9-3.735-2.864-5.593a1.663,1.663,0,1,0-2.962,1.5q1.991,3.987,4,7.967c.071.141.134.286.218.466l-2.6,1.3m15.54,10.138c3.218,0,6.276.005,9.334-.013a.8.8,0,0,0,.5-.3Q41.406,40.651,46.6,34.535a1.542,1.542,0,0,0,.4-1.09Q46.988,25.074,47,16.7c0-.2,0-.391-.013-.586a1.492,1.492,0,0,0-1.563-1.411,1.536,1.536,0,0,0-1.493,1.651q-.006,4.929,0,9.86a5.061,5.061,0,0,1-.556,2.344q-1.486,2.932-2.956,5.874c-.414.823-.827,1.647-1.26,2.508l-2.622-1.327c.122-.249.212-.439.306-.627q1.945-3.873,3.891-7.747A1.664,1.664,0,1,0,37.8,25.688q-1.646,3.155-3.26,6.322a5.313,5.313,0,0,1-1.576,1.958q-1.714,1.245-3.483,2.414a5.673,5.673,0,0,0-2.82,4.028c-.252,2.184-.211,4.4-.3,6.662" fill="#007699"/>
        <path id="Path_1536" data-name="Path 1536" d="M37.921,12.915A12.937,12.937,0,1,1,24.911,0a12.974,12.974,0,0,1,13.01,12.915m-12.961,10a10,10,0,1,0-9.951-10.128A10,10,0,0,0,24.96,22.919" fill="#007699"/>
        <path id="Path_1537" data-name="Path 1537" d="M43.9,2.982l-3.7,2.589L38.517,3.162,42.217.57,43.9,2.982" fill="#007699"/>
        <path id="Path_1538" data-name="Path 1538" d="M6.05,2.965,7.737.551l3.7,2.589c-.564.807-1.109,1.585-1.688,2.412L6.05,2.965" fill="#007699"/>
        <path id="Path_1539" data-name="Path 1539" d="M20.868,17.069H18.116V8.8h2.727V6.075h8.275v2.7H31.85v8.3H29.129V19.79H20.868ZM23.8,14.126v2.721h2.382V14.112h2.692V11.7H26.15V9.008H23.787V11.73h-2.7v2.4Z" fill="#007699"/>
      </g>
    </g>
  </g>
</svg>
