<svg id="Headaches" xmlns="http://www.w3.org/2000/svg" xmlns:xlink="http://www.w3.org/1999/xlink" width="100" height="100" viewBox="0 0 100 100">
  <defs>
    <clipPath id="clip-path">
      <rect id="Rectangle_1354" data-name="Rectangle 1354" width="45.887" height="50" fill="#34aba4"/>
    </clipPath>
  </defs>
  <circle id="Ellipse_1" data-name="Ellipse 1" cx="50" cy="50" r="50" fill="#e6f3f4"/>
  <g id="Group_1655" data-name="Group 1655" transform="translate(27.057 25)">
    <g id="Group_1654" data-name="Group 1654" clip-path="url(#clip-path)">
      <path id="Path_1565" data-name="Path 1565" d="M14.067,0l2.252.687c.077.023.153.048.286.09-.2.766-.4,1.523-.626,2.356H18.3c-.572,2.092-1.121,4.1-1.683,6.156l-2.832-.768c.208-.791.411-1.561.629-2.388H12.1L13.774,0Z" fill="#007699"/>
      <path id="Path_1566" data-name="Path 1566" d="M41.052,23.779a5.208,5.208,0,0,1,4.293,2.913,4.246,4.246,0,0,1,.536,2.248c-.088,1.508-.11,3.028-.322,4.52a5.132,5.132,0,0,1-5.109,4.23c-.379,0-.469.124-.562.467C38.174,44.493,34.12,48.476,27.68,49.726A15.192,15.192,0,0,1,10.093,38.1c-.066-.282-.135-.4-.458-.41a5.186,5.186,0,0,1-5.3-4.916c-.105-1.132-.127-2.272-.222-3.406a5.278,5.278,0,0,1,4.817-5.579A16,16,0,0,1,16.16,11.482,15.458,15.458,0,0,1,25.615,8.83,15.719,15.719,0,0,1,36.2,13.371a15.979,15.979,0,0,1,4.849,10.408m-2.929,1.69a13.74,13.74,0,0,0-.69-4.841A13.131,13.131,0,0,0,11.9,25.516c.139,2.3.336,4.6.522,6.9.115,1.425.177,2.861.4,4.27a12.33,12.33,0,0,0,24.39-.336c.207-1.626.3-3.267.437-4.9.177-2.154.342-4.309.474-5.981m-29.111,1.3a2.222,2.222,0,0,0-1.954,2.209c.046,1.314.139,2.63.275,3.938a2.091,2.091,0,0,0,2.323,1.763q-.321-3.951-.644-7.91M40.341,34.7a2.149,2.149,0,0,0,2.324-1.79c.136-1.308.226-2.623.278-3.938a2.239,2.239,0,0,0-1.955-2.213c-.215,2.641-.43,5.275-.647,7.941" fill="#34aba4"/>
      <path id="Path_1567" data-name="Path 1567" d="M9.311,16.6l-6.14,1.68V15.967L.783,16.6C.523,15.662.27,14.748,0,13.771l6.141-1.684v2.319l2.386-.634c.258.93.51,1.843.784,2.832" fill="#007699"/>
      <path id="Path_1568" data-name="Path 1568" d="M3.038,4.487,5.592,3.029,6.866,5.246,8.417,3.439l3.2,5.617L9.069,10.515,7.849,8.394l-1.6,1.716L3.038,4.487" fill="#007699"/>
      <path id="Path_1569" data-name="Path 1569" d="M17.435,22.7c-.076.823-.146,1.593-.223,2.425l-2.872.184a9.829,9.829,0,0,1,.322-3.357l2.773.748" fill="#34aba4"/>
      <path id="Path_1570" data-name="Path 1570" d="M22.216,17.6c-.3-.886-.6-1.785-.952-2.811l3.313-.545v2.963l-2.361.393" fill="#34aba4"/>
      <path id="Path_1571" data-name="Path 1571" d="M18.432,20.512,15.966,18.86l2.323-2.474c.663.861,1.244,1.617,1.811,2.352l-1.668,1.774" fill="#34aba4"/>
    </g>
  </g>
</svg>
