<svg id="Herbal_medicine" data-name="Herbal medicine" xmlns="http://www.w3.org/2000/svg" xmlns:xlink="http://www.w3.org/1999/xlink" width="72" height="72" viewBox="0 0 72 72">
  <defs>
    <clipPath id="clip-path">
      <rect id="Rectangle_1333" data-name="Rectangle 1333" width="70" height="61.51" transform="translate(0 0)" fill="#007699"/>
    </clipPath>
  </defs>
  <g id="Group_1639" data-name="Group 1639" transform="translate(1 5)">
    <g id="Group_1638" data-name="Group 1638" clip-path="url(#clip-path)">
      <path id="Path_1550" data-name="Path 1550" d="M70,48.773c-.2.88-.335,1.778-.6,2.638-1.307,4.246-4.267,6.978-8.181,8.813a11.675,11.675,0,0,1-5.783,1.266c-2.108-.133-4.232-.033-6.339-.188a30.654,30.654,0,0,1-3.785-.748c-.016.244-.036.525-.061.862H8.5A10.822,10.822,0,0,1,11.2,52.347c-.452-.364-.909-.721-1.353-1.093A26,26,0,0,1,.289,33.894C-.069,30.86.083,27.766,0,24.6H.9q10.786,0,21.575.011a.947.947,0,0,0,.954-.55q3.828-6.684,7.7-13.343A.8.8,0,0,0,31.117,9.7a6.1,6.1,0,0,1,.417-7.622A6.089,6.089,0,0,1,39.116.791q3.667,2.03,7.26,4.191a6.05,6.05,0,0,1,2.749,7.006,6.01,6.01,0,0,1-6.1,4.388,1.369,1.369,0,0,0-1.454.84c-1.357,2.44-2.775,4.845-4.232,7.368h16.13c0,1.694.061,3.306-.014,4.912a61.058,61.058,0,0,1-.5,6.377,23.7,23.7,0,0,1-3.148,8.381l3.569,3.311c.118-1.039.18-2.143.376-3.222a14.34,14.34,0,0,1,12.224-11.4c1.33-.146,2.678-.1,4.019-.149Zm-35.971.412a20.186,20.186,0,0,1-.995-8.2c4.436.122,8.9-.531,13.092,1.389A23.278,23.278,0,0,0,49.344,28.73H4.075c.118,1.738.119,3.447.367,5.12a22.2,22.2,0,0,0,10.1,15.738,1.359,1.359,0,0,0,.859.11,27.323,27.323,0,0,1,3.281-.489c4.824-.055,9.649-.024,14.474-.024h.878m23.539,7.924a4.391,4.391,0,0,0,.459-.057,10.3,10.3,0,0,0,7.872-9.91c.024-2.753.006-5.506.006-8.259V37.164a2.714,2.714,0,0,0-.4.031,10.3,10.3,0,0,0-7.936,9.928c-.021,2.594-.005,5.188-.005,7.782v2.2M37.29,45.15A14.329,14.329,0,0,0,53.276,57.277,14.382,14.382,0,0,0,37.29,45.15m2.245,12.194c-1.086-1.273-2.194-2.583-3.322-3.874a.778.778,0,0,0-.535-.185c-5.733-.008-11.466-.056-17.2.021a5.867,5.867,0,0,0-5.4,3.553,2.99,2.99,0,0,0-.15.485ZM27.869,24.6c1.528,0,2.915.02,4.3-.02a.956.956,0,0,0,.651-.436c.863-1.441,1.687-2.906,2.527-4.361,1-1.728,2-3.454,3.021-5.223L34.84,12.527c-2.326,4.028-4.614,7.993-6.971,12.075M36.15,4.042a2.225,2.225,0,0,0-1.967,1.612,1.957,1.957,0,0,0,1.01,2.3q3.439,2.01,6.9,3.985a2.035,2.035,0,1,0,2.027-3.518q-3.409-1.992-6.846-3.942a8.037,8.037,0,0,0-1.122-.439" fill="#007699"/>
    </g>
  </g>
  <rect id="Rectangle_1401" data-name="Rectangle 1401" width="72" height="72" fill="none"/>
</svg>
