<svg xmlns="http://www.w3.org/2000/svg" xmlns:xlink="http://www.w3.org/1999/xlink" width="100" height="100" viewBox="0 0 100 100">
  <defs>
    <clipPath id="clip-path">
      <rect id="Rectangle_1284" data-name="Rectangle 1284" width="49.993" height="50" fill="#007699"/>
    </clipPath>
  </defs>
  <g id="Homeopathy" transform="translate(-363 -1781)">
    <circle id="Ellipse_1" data-name="Ellipse 1" cx="50" cy="50" r="50" transform="translate(363 1781)" fill="#e6f3f4"/>
    <g id="Group_1597" data-name="Group 1597" transform="translate(393 1806)">
      <g id="Group_1596" data-name="Group 1596" clip-path="url(#clip-path)">
        <path id="Path_1470" data-name="Path 1470" d="M20.508,0V6.05h5.833V8.969H23.463V11.31a8.67,8.67,0,0,1,5.364,2.634A9.484,9.484,0,0,1,31.419,20.3c.053,1.2-.118,2.4-.154,3.6a1.652,1.652,0,0,0,.2.8c.239.438.544.841.851,1.3.367-.542.748-1.042,1.051-1.586.1-.179.015-.473-.015-.711a13.288,13.288,0,0,1,.685-7.046,8.863,8.863,0,0,1,9.227-5.392,17.947,17.947,0,0,1,6.406,1.9c.206.1.35.183.315.458a28.62,28.62,0,0,1-1.658,7.291A7.935,7.935,0,0,1,44.791,25.3a9.528,9.528,0,0,1-4.315,1.053c-1.446.026-2.894-.049-4.34-.1a.64.64,0,0,0-.64.308,8.752,8.752,0,0,0-1.719,4.371H30.87a8.246,8.246,0,0,0-1.549-4.1V50H0V21.484a1.266,1.266,0,0,0,.194-.135q2.729-2.723,5.445-5.457a.935.935,0,0,0,.213-.6c.015-1.952.01-3.9.008-5.856,0-.141-.017-.281-.029-.473H2.957V6.047H8.789V0Zm5.838,26.44c-1.114-.061-2.174-.068-3.22-.185a7.378,7.378,0,0,1-6.269-4.172,24.236,24.236,0,0,1-2.1-8.457.613.613,0,0,1,.3-.451,15.521,15.521,0,0,1,5.128-1.766c.119-.017.3-.172.308-.268.027-.708.014-1.418.014-2.123H8.787v.568c0,2.31.009,4.621-.013,6.931a1.123,1.123,0,0,1-.3.707q-2.6,2.644-5.241,5.249a.975.975,0,0,0-.314.765q.012,11.641.006,23.282v.519H26.346Zm18.5-8.4c-1.175.876-2.317,1.683-3.408,2.553S39.3,22.4,38.229,23.313l.078.172c.983-.049,1.972-.045,2.948-.159a4.5,4.5,0,0,0,3.8-2.36,18.776,18.776,0,0,0,1.717-5.551A.5.5,0,0,0,46.537,15a10.332,10.332,0,0,0-5.634-.641c-3.214.639-4.9,3.733-4.716,6.9a51.245,51.245,0,0,1,7.04-5.613l1.623,2.4M21.494,15.532l7.069,5.623c-.079-.631-.112-1.283-.246-1.914a5.756,5.756,0,0,0-4.43-4.849,10.1,10.1,0,0,0-6.032.707c.072.407.129.79.206,1.168a16.729,16.729,0,0,0,1.552,4.7,3.9,3.9,0,0,0,1.916,1.868,11.521,11.521,0,0,0,4.922.592,48.6,48.6,0,0,0-6.671-5.357l1.714-2.536M11.758,6.023h5.784V2.938H11.758Z" fill="#007699"/>
        <path id="Path_1471" data-name="Path 1471" d="M14.674,39.049a4.5,4.5,0,0,1,2.4-3.232,4.34,4.34,0,0,1,2.987-.354,4.4,4.4,0,0,1-.326,8.628c-2.213.416-3.963-.814-5.118-3.651A4.5,4.5,0,0,1,12.176,43.7a4.234,4.234,0,0,1-2.895.334A4.4,4.4,0,0,1,9.557,35.4c2.2-.422,3.956.809,5.117,3.649m-2.957.694a1.464,1.464,0,1,0-1.461,1.466,1.509,1.509,0,0,0,1.461-1.466m7.341-1.461a1.464,1.464,0,1,0,1.448,1.479,1.511,1.511,0,0,0-1.448-1.479" fill="#007699"/>
        <path id="Path_1472" data-name="Path 1472" d="M10.256,30.967a4.393,4.393,0,1,1,4.416,4.382,4.38,4.38,0,0,1-4.416-4.382m4.381,1.453a1.464,1.464,0,1,0-1.452-1.475,1.511,1.511,0,0,0,1.452,1.475" fill="#007699"/>
      </g>
    </g>
  </g>
</svg>
