<svg xmlns="http://www.w3.org/2000/svg" xmlns:xlink="http://www.w3.org/1999/xlink" width="100" height="100" viewBox="0 0 100 100">
  <defs>
    <clipPath id="clip-path">
      <rect id="Rectangle_1324" data-name="Rectangle 1324" width="49.97" height="50" fill="#007699"/>
    </clipPath>
  </defs>
  <g id="IV_therapy" data-name="IV therapy" transform="translate(-363 -1781)">
    <circle id="Ellipse_1" data-name="Ellipse 1" cx="50" cy="50" r="50" transform="translate(363 1781)" fill="#e6f3f4"/>
    <g id="Group_1632" data-name="Group 1632" transform="translate(388.015 1806)">
      <g id="Group_1631" data-name="Group 1631" clip-path="url(#clip-path)">
        <path id="Path_1541" data-name="Path 1541" d="M49.97,38.288V50H41.187V38.279h2.929V6.351c0-.162,0-.325,0-.488a2.98,2.98,0,1,0-5.955.219q0,17.8,0,35.612a8.287,8.287,0,0,1-5.629,7.866c-.547.186-1.121.295-1.683.44H21.472a.984.984,0,0,0-.216-.091,8.192,8.192,0,0,1-5.445-3.285A8.477,8.477,0,0,1,14.3,43.143H11.246v-.582c0-2.147-.009-4.294.008-6.441a.5.5,0,0,0-.427-.569A15.634,15.634,0,0,1,0,20.811Q-.01,12.148,0,3.488V2.96H.665c3.465,0,6.929,0,10.394.007a.574.574,0,0,0,.617-.383A4.194,4.194,0,0,1,15.622.042a4.182,4.182,0,0,1,4.005,2.525.613.613,0,0,0,.66.4q5.221-.014,10.443-.006h.594v.4c0,5.888.006,11.776-.012,17.664A11.736,11.736,0,0,1,31.1,23.3a15.518,15.518,0,0,1-10.58,12.239.569.569,0,0,0-.456.649c.018,2.131.009,4.262.009,6.393v.608H17.378a5.312,5.312,0,0,0,5.135,3.876c2.423.021,4.847.011,7.27,0a5.235,5.235,0,0,0,2.7-.708,5.415,5.415,0,0,0,2.738-5q0-17.445,0-34.89c0-.309,0-.618.013-.926a5.91,5.91,0,0,1,11.805.567q0,15.762,0,31.523v.649ZM17.1,5.9c0-.492,0-.912,0-1.331a1.45,1.45,0,1,0-2.885-.019c-.008.434,0,.869,0,1.353H8.783v.629q0,6.828,0,13.656a12.519,12.519,0,0,0,.083,1.409,6.862,6.862,0,0,0,13.66-1.045c.015-4.747,0-9.494,0-14.241,0-.126-.017-.251-.028-.411Zm8.367,0v.625c0,4.634.009,9.268-.008,13.9a12.736,12.736,0,0,1-.2,2.178,9.8,9.8,0,0,1-19.4-2.114q0-7,0-14V5.918H2.927v.369c0,4.78-.014,9.561.013,14.342a14.409,14.409,0,0,0,.284,2.658,12.719,12.719,0,0,0,25.163-2.819c.012-4.683,0-9.366,0-14.049V5.9ZM47.023,41.241h-2.88v5.8h2.88ZM14.251,40.2h2.815V36.3H14.251Z" fill="#007699"/>
      </g>
    </g>
  </g>
</svg>
