<svg xmlns="http://www.w3.org/2000/svg" xmlns:xlink="http://www.w3.org/1999/xlink" width="100" height="100" viewBox="0 0 100 100">
  <defs>
    <clipPath id="clip-path">
      <rect id="Rectangle_51" data-name="Rectangle 51" width="50" height="42.654" transform="translate(0 0)" fill="#007699"/>
    </clipPath>
  </defs>
  <g id="Naturopathy" transform="translate(-363 -1781)">
    <circle id="Ellipse_1" data-name="Ellipse 1" cx="50" cy="50" r="50" transform="translate(363 1781)" fill="#e6f3f4"/>
    <g id="Group_10" data-name="Group 10" transform="translate(383 1805)">
      <g id="Group_9" data-name="Group 9" transform="translate(5 5)" clip-path="url(#clip-path)">
        <path id="Path_11" data-name="Path 11" d="M50,14.523c-.163.89-.292,1.788-.5,2.669A17.058,17.058,0,0,1,28.478,29.675c-.107-.029-.218-.041-.38-.071-.011.188-.027.343-.027.5,0,1.073-.023,2.147.014,3.22a1.3,1.3,0,0,0,.328.8c1.789,1.823,3.6,3.623,5.41,5.426a3.208,3.208,0,0,0,.338.268l-2.108,2.108-5.026-5.071a3.283,3.283,0,0,1-.319.522,16.11,16.11,0,0,1-9.93,5.125A16,16,0,0,1,2.965,37.872C1.977,36.908,1.009,35.924,0,34.917A39.24,39.24,0,0,1,5.9,29.6c-.324-.44-.65-.862-.954-1.3a15.678,15.678,0,0,1-2.857-8.52c-.122-3.265-.08-6.536-.108-9.8a.842.842,0,0,1,.034-.157,1.805,1.805,0,0,1,.282-.04c3.172.014,6.347-.068,9.514.07a16.488,16.488,0,0,1,11.637,5.484c.828.885,1.52,1.9,2.278,2.856L43.918,0A17.469,17.469,0,0,1,49.6,9.4c.169.757.27,1.528.4,2.293ZM22.814,32.882,4.938,15c-.005.088-.018.211-.018.334,0,1.057-.017,2.115,0,3.172A14.24,14.24,0,0,0,11.2,30.444c3.529,2.515,7.555,2.685,11.618,2.438M7.183,12.756,25.2,30.776a49.473,49.473,0,0,0-.312-5.973c-.967-5.662-4.3-9.419-9.692-11.354a12.649,12.649,0,0,0-4.4-.7c-1.212.01-2.424,0-3.611,0M4.2,34.9c6.265,7.086,15.683,5.388,19.653,1-1.354,0-2.686.005-4.018,0A17.272,17.272,0,0,1,8.331,31.975a.406.406,0,0,0-.553-.031A16.654,16.654,0,0,0,4.2,34.9m30.23-18.04V27.229A13.944,13.944,0,0,0,41.771,24.2l-7.337-7.339m9.552,5.117a13.874,13.874,0,0,0,3-7.3h-10.3l7.3,7.3m2.975-10.3C46.875,9.355,45.178,5.346,44,4.436l-7.242,7.243ZM31.436,16.827a.968.968,0,0,0-.162.1c-1.347,1.344-2.7,2.685-4.029,4.043a.59.59,0,0,0-.093.5,17.727,17.727,0,0,1,.891,4.673c.006.124.087.329.173.352,1.052.288,2.111.55,3.221.833Z" transform="translate(0 0)" fill="#007699"/>
      </g>
    </g>
  </g>
</svg>
