<svg xmlns="http://www.w3.org/2000/svg" xmlns:xlink="http://www.w3.org/1999/xlink" width="100" height="100" viewBox="0 0 100 100">
  <defs>
    <clipPath id="clip-path">
      <rect id="Rectangle_1318" data-name="Rectangle 1318" width="43.968" height="50" fill="#007699"/>
    </clipPath>
  </defs>
  <g id="Osteopathy" transform="translate(-363 -1781)">
    <circle id="Ellipse_1" data-name="Ellipse 1" cx="50" cy="50" r="50" transform="translate(363 1781)" fill="#e6f3f4"/>
    <g id="Group_1620" data-name="Group 1620" transform="translate(391.016 1806)">
      <g id="Group_1619" data-name="Group 1619" clip-path="url(#clip-path)">
        <path id="Path_1525" data-name="Path 1525" d="M17.588,0h8.794q0,1.319,0,2.638a3,3,0,0,0,2.2,3.138c3.336,1.23,6.688,2.416,10,3.715a8.642,8.642,0,0,1,5.378,8.02q.007,15.951.013,31.9v.584H35.15V25.49c-.1.091-.137.121-.167.158-.071.089-.138.181-.206.273a12.96,12.96,0,0,0-2.533,7.893q-.008,7.817,0,15.633V50H11.727v-.6q0-7.767,0-15.534a13.054,13.054,0,0,0-2.561-7.982c-.09-.123-.2-.234-.382-.451V49.989H0V49.61Q.007,33.368.014,17.125a2.825,2.825,0,0,1,.011-.391A8.721,8.721,0,0,1,5.884,9.29c3.156-1.2,6.336-2.342,9.5-3.513a2.992,2.992,0,0,0,2.2-3.139c0-.879,0-1.758,0-2.638M29.315,47.077v-.615c0-4.283-.009-8.565,0-12.848a15.762,15.762,0,0,1,4.248-10.866,20.033,20.033,0,0,1,4.54-3.446V47.07h2.933v-.606c-.013-9.575-.055-19.15-.019-28.725a6.067,6.067,0,0,0-3.995-5.721c-3.195-1.144-6.369-2.346-9.558-3.51a5.826,5.826,0,0,1-3.682-3.644,15.5,15.5,0,0,1-.425-1.9h-2.8a6.08,6.08,0,0,1-4.4,5.688c-3.075,1.088-6.117,2.271-9.192,3.363a6.06,6.06,0,0,0-4.017,5.7c.034,9.591-.007,19.183-.019,28.774,0,.19,0,.38,0,.579H5.882V19.262c1.008.683,1.989,1.241,2.847,1.949A15.479,15.479,0,0,1,14.642,33.44c.055,4.347.012,8.7.012,13.044v.593Z" fill="#007699"/>
        <path id="Path_1526" data-name="Path 1526" d="M25.018,18.81A21.113,21.113,0,0,1,23.8,25.358l-2.652-.881L22.23,18.81Z" fill="#007699"/>
        <path id="Path_1527" data-name="Path 1527" d="M21.813,33.958H19.007A22.518,22.518,0,0,1,20.016,27.4l2.669.829c-.294,1.931-.581,3.814-.872,5.729" fill="#007699"/>
        <path id="Path_1528" data-name="Path 1528" d="M19.559,11.372l1.918-2.241A11.563,11.563,0,0,1,24.8,15.424l-2.88.549a8.972,8.972,0,0,0-2.361-4.6" fill="#007699"/>
        <path id="Path_1529" data-name="Path 1529" d="M22.577,43.714a10.417,10.417,0,0,1-3.359-6.389c.982-.169,1.917-.328,2.9-.495a7.985,7.985,0,0,0,2.195,4.509c-.573.784-1.134,1.554-1.733,2.375" fill="#007699"/>
      </g>
    </g>
  </g>
</svg>
