<svg xmlns="http://www.w3.org/2000/svg" xmlns:xlink="http://www.w3.org/1999/xlink" width="100" height="100" viewBox="0 0 100 100">
  <defs>
    <clipPath id="clip-path">
      <rect id="Rectangle_1319" data-name="Rectangle 1319" width="49.974" height="50" fill="#007699"/>
    </clipPath>
  </defs>
  <g id="Physiotherapy" transform="translate(-363 -1781)">
    <circle id="Ellipse_1" data-name="Ellipse 1" cx="50" cy="50" r="50" transform="translate(363 1781)" fill="#e6f3f4"/>
    <g id="Group_1622" data-name="Group 1622" transform="translate(388.013 1806)">
      <g id="Group_1621" data-name="Group 1621" clip-path="url(#clip-path)">
        <path id="Path_1530" data-name="Path 1530" d="M30.079,0h1.562a2.039,2.039,0,0,0,.267.1A5.73,5.73,0,0,1,36.4,4.061,5.625,5.625,0,0,1,35.272,9.8a6.018,6.018,0,0,1-3.466,1.984c1.635.031,3.261.026,4.886.032a7.274,7.274,0,0,1,7.089,5.412c.1.353.229.458.585.454,1.692-.018,3.385-.008,5.077-.008h.519v8.8h-8.82v2.938h8.832V49.966H47.05V44.082H2.907V50H0V35.254H.7L0,33.2v-1.66a1.009,1.009,0,0,0,.09-.22,5.685,5.685,0,0,1,1.53-3.041,5.855,5.855,0,0,1,10.1,3.973,6.429,6.429,0,0,1-.761,2.988c.432-.037.852.229,1.038-.413a7.168,7.168,0,0,1,5.218-5.156.539.539,0,0,0,.472-.628q-.026-4.951-.008-9.9a7.3,7.3,0,0,1,7.307-7.321c1.5-.008,2.993,0,4.49,0,.081,0,.163,0,.244,0,.06,0,.119-.018.241-.037a5.785,5.785,0,0,1-4.8-4.513,5.766,5.766,0,0,1,2.223-6.1A6.84,6.84,0,0,1,30.079,0M32.33,17.678h8.478a4.338,4.338,0,0,0-4.235-2.929c-3.792-.014-7.584-.027-11.375.016a5.2,5.2,0,0,0-2.067.452,4.263,4.263,0,0,0-2.522,4.163c-.018,3.19,0,6.379,0,9.569,0,.14.018.28.027.41H32.3v-2.9H23.576V17.707h2.9V23.5h5.85ZM2.95,41.08H47.032V38.208H2.95Zm44.1-8.757h-.628q-13.4,0-26.789,0a9.3,9.3,0,0,0-1.214.085A4.316,4.316,0,0,0,15,35.227h32.05Zm-8.878-8.8h8.86V20.641H35.291v8.73h2.885ZM33.785,5.948a2.927,2.927,0,1,0-5.851,0,2.926,2.926,0,1,0,5.851,0m-25,26.361A2.978,2.978,0,0,0,5.844,29.4a2.926,2.926,0,0,0,.031,5.851,2.978,2.978,0,0,0,2.91-2.941" fill="#007699"/>
      </g>
    </g>
  </g>
</svg>
