<svg id="Pregnancy" xmlns="http://www.w3.org/2000/svg" xmlns:xlink="http://www.w3.org/1999/xlink" width="100" height="100" viewBox="0 0 100 100">
  <defs>
    <clipPath id="clip-path">
      <rect id="Rectangle_990" data-name="Rectangle 990" width="37.721" height="50" fill="#34aba4"/>
    </clipPath>
  </defs>
  <circle id="Ellipse_4" data-name="Ellipse 4" cx="50" cy="50" r="50" fill="#e6f3f4"/>
  <g id="Group_1408" data-name="Group 1408" transform="translate(31 25)">
    <g id="Group_1407" data-name="Group 1407" clip-path="url(#clip-path)">
      <path id="Path_1356" data-name="Path 1356" d="M25.818,0Q28.2,2.551,30.573,5.1a19.337,19.337,0,0,1,1.335,1.489,7.544,7.544,0,0,1-.572,9.788,2.93,2.93,0,0,1-.279.231c.65.541,1.287,1.014,1.858,1.556a14.644,14.644,0,0,1,4.779,11.9A14.934,14.934,0,0,1,26.772,43.615c-.379.108-.5.251-.5.654.027,1.708.012,3.416.012,5.125v.6h-.552q-10.421,0-20.842.007a.654.654,0,0,1-.707-.416C3.141,47.422,1.915,45.333,1.042,43.1a13.22,13.22,0,0,1,1.97-13.557,16.142,16.142,0,0,0,3.526-8.517A25.664,25.664,0,0,0,6.432,16.7c-.186-2.185-.477-4.36-.722-6.54q-.36-3.22-.718-6.443-.178-1.6-.362-3.2C4.61.349,4.565.175,4.532,0ZM7.86,2.928c.191,1.662.381,3.273.56,4.885.341,3.052.654,6.107,1.02,9.156a19.285,19.285,0,0,1-.394,6.872A20.629,20.629,0,0,1,5.234,31.5,10.273,10.273,0,0,0,3.669,41.724c.622,1.7,1.561,3.28,2.336,4.923a.651.651,0,0,0,.7.429q8.03-.02,16.06-.009h.551v-.6c0-1.545.013-3.091-.009-4.637-.006-.417.083-.615.545-.637a8.178,8.178,0,0,0,1.39-.237,12.058,12.058,0,0,0-.555-23.686c-.652-.1-1.31-.156-1.953-.231V14.2a11.432,11.432,0,0,1,4.658.727,1.317,1.317,0,0,0,1.681-.427,4.7,4.7,0,0,0,.034-6.668c-1.44-1.527-2.881-3.053-4.307-4.593a.931.931,0,0,0-.759-.319q-7.835.012-15.67.006Z" fill="#34aba4"/>
      <path id="Path_1357" data-name="Path 1357" d="M21.945,36.918c-2.137-1.862-4.286-3.654-6.343-5.548A5.274,5.274,0,0,1,14.383,25.4a5.353,5.353,0,0,1,5.075-3.3,13.434,13.434,0,0,1,2.171.469,1.117,1.117,0,0,0,.617,0,5.415,5.415,0,0,1,7.632,4.163,4.971,4.971,0,0,1-1.567,4.614c-2.065,1.884-4.207,3.685-6.366,5.563m-.012-3.91c1.4-1.207,2.767-2.385,4.131-3.568a2.473,2.473,0,1,0-3.223-3.747c-.3.248-.585.5-.888.764-.374-.314-.712-.62-1.072-.9a2.465,2.465,0,0,0-3.246,3.7c.277.275.579.524.874.78q1.71,1.485,3.424,2.969" fill="#007699"/>
    </g>
  </g>
</svg>
