<svg id="Supplements" xmlns="http://www.w3.org/2000/svg" xmlns:xlink="http://www.w3.org/1999/xlink" width="72" height="72" viewBox="0 0 72 72">
  <defs>
    <clipPath id="clip-path">
      <rect id="Rectangle_1335" data-name="Rectangle 1335" width="53.351" height="70" fill="#007699"/>
    </clipPath>
  </defs>
  <g id="Group_1645" data-name="Group 1645" transform="translate(9.3 1)">
    <g id="Group_1644" data-name="Group 1644" clip-path="url(#clip-path)">
      <path id="Path_1559" data-name="Path 1559" d="M49.253,0V12.271H45.205v4.134c.587,0,1.192,0,1.8,0a6.111,6.111,0,0,1,6.348,6.308q0,21.221,0,42.441v.726h-.8q-9.567,0-19.136-.009a1.744,1.744,0,0,0-1.273.468,13.854,13.854,0,0,1-9.39,3.633,49.472,49.472,0,0,1-6.344-.148c-7.114-.9-12.1-4.77-14.978-11.312A18.087,18.087,0,0,1,.1,49.532,18.878,18.878,0,0,1,12.35,52.587v-.9q0-14.421,0-28.841a6.123,6.123,0,0,1,6.418-6.446c.565,0,1.131,0,1.74,0V12.319h-4.06V0Zm0,28.972c0-2.032,0-3.966,0-5.9,0-1.812-.759-2.571-2.57-2.572H19.015c-1.811,0-2.569.76-2.569,2.572,0,10.5.013,21-.02,31.5a4.213,4.213,0,0,0,.906,3.007,13.667,13.667,0,0,1,1.2,1.976c.084.141.183.274.294.439.122-.165.2-.274.284-.384a13.7,13.7,0,0,1,9.9-5.874c2.368-.242,4.774-.112,7.163-.148.241,0,.483,0,.727,0a15.77,15.77,0,0,1-1.31,8.152H49.2V49.452H24.7V28.972Zm-.03,4.151H28.8v12.2H49.217V41.261H32.908V37.156H49.225Zm-4.1-28.977H20.546V8.168H45.123ZM24.69,16.356H41V12.311H24.69ZM16.243,65.593a14.223,14.223,0,0,0-5.256-8.9A13.449,13.449,0,0,0,4.4,53.808c.81,6.325,6.5,11.277,11.844,11.785m4.606.224c5.32.857,11.587-3.485,11.679-8.092-5.7-.6-11.226,3.228-11.679,8.092" fill="#007699"/>
    </g>
  </g>
  <rect id="Rectangle_1403" data-name="Rectangle 1403" width="72" height="72" fill="none"/>
</svg>
