<svg xmlns="http://www.w3.org/2000/svg" width="80.002" height="80.002" viewBox="0 0 80.002 80.002">
  <g id="Group_1712" data-name="Group 1712" transform="translate(-1302.998 -1912.999)">
    <path id="Exclusion_1" data-name="Exclusion 1" d="M16518,10309a39.878,39.878,0,1,1,15.568-3.144A39.749,39.749,0,0,1,16518,10309Zm-22-46.264h0v23.6a3.907,3.907,0,0,0,.029.586,4.8,4.8,0,0,0,4.771,4.076h.008c8.436-.017,17.014-.017,25.311-.017,3.014,0,6.078,0,9.043,0h.258a3.3,3.3,0,0,0,.424-.021,4.7,4.7,0,0,0,3.07-1.719,4.871,4.871,0,0,0,1.068-3.006c-.016-5.553-.014-11.17-.012-16.6q0-3.23,0-6.462c0-.066,0-.133-.008-.2l-.006-.061c-.006-.058-.01-.115-.012-.177Zm8.408-12.587c-1.252,0-2.545,0-3.816.009a4.689,4.689,0,0,0-4.588,4.566c-.012,1.047-.008,2.1-.006,3.125q0,.671,0,1.343a1.283,1.283,0,0,0,.016.19l.006.045c.006.046.012.092.016.138h43.9c0-.044.01-.087.016-.13l0-.028a1.524,1.524,0,0,0,.018-.211c0-1.479,0-3.009,0-4.513a2.984,2.984,0,0,0-.025-.44,4.723,4.723,0,0,0-1.715-3.04,4.783,4.783,0,0,0-2.945-1.059h-.094c-.658.014-1.344.021-2.156.021-.508,0-1.062,0-1.746-.007-.508,0-1.141-.006-1.74-.006h-.57v-.426c0-.409,0-.795,0-1.182a1.5,1.5,0,0,0-.91-1.4,1.54,1.54,0,0,0-.619-.149h-.078a1.565,1.565,0,0,0-1.521,1.521c-.01.292-.008.59-.006.879l0,.188c0,.18,0,.356,0,.532h-15.717v-.276c0-.092,0-.183,0-.273.006-.389.006-.715,0-1.046a1.571,1.571,0,0,0-1.4-1.508c-.039,0-.08,0-.135,0a1.526,1.526,0,0,0-1.561,1.234,5.624,5.624,0,0,0-.037.976c0,.145,0,.277,0,.4v.536h-.615c-.645,0-1.312,0-1.973,0Zm10.463,31.405a1.428,1.428,0,0,1-.482-.089,1.933,1.933,0,0,1-.7-.429c-1.514-1.492-3.023-3-4.617-4.612a1.614,1.614,0,0,1-.482-1.15,1.569,1.569,0,0,1,1.551-1.534,1.6,1.6,0,0,1,1.125.474c.752.734,1.492,1.477,2.188,2.175q.554.555,1.111,1.11l.006.006c.066.07.137.135.211.2l.027.025.051.046.08.074.576-.5.359-.307.361-.311c.256-.219.51-.436.764-.654l7.709-6.607a1.834,1.834,0,0,1,1.178-.5,1.583,1.583,0,0,1,1.533,1.364,1.594,1.594,0,0,1-.537,1.39c-.475.426-.969.847-1.436,1.242l-.17.145c-.182.155-.369.313-.551.471l-2.273,1.946c-1.918,1.639-4.178,3.573-6.408,5.492A1.82,1.82,0,0,1,16514.875,10281.556Z" transform="translate(-15175 -8316)" fill="#fff"/>
  </g>
</svg>
