<svg id="location" xmlns="http://www.w3.org/2000/svg" width="18" height="18" viewBox="0 0 18 18">
  <path id="Path_1422" data-name="Path 1422" d="M13.333,6.4A6.582,6.582,0,0,1,10.51,11.87a9.477,9.477,0,0,0-2.648,2.841c-.179.3-.359.595-.543.889A.746.746,0,0,1,6,15.6a14.409,14.409,0,0,0-1.553-2.208A12.292,12.292,0,0,0,2.68,11.784,6.377,6.377,0,0,1,.05,7.317,6.526,6.526,0,0,1,5.434.113,6.636,6.636,0,0,1,13.17,5.2c.093.443.124.9.163,1.2M6.658,9.449A2.906,2.906,0,1,0,3.708,6.465,2.928,2.928,0,0,0,6.658,9.449" transform="translate(2.35 1)" fill="#99cdd1"/>
  <rect id="Rectangle_1366" data-name="Rectangle 1366" width="18" height="18" fill="none"/>
</svg>
