<svg id="online" xmlns="http://www.w3.org/2000/svg" xmlns:xlink="http://www.w3.org/1999/xlink" width="20" height="20" viewBox="0 0 20 20">
  <defs>
    <clipPath id="clip-path">
      <rect id="Rectangle_1107" data-name="Rectangle 1107" width="18" height="18" fill="#99cdd1"/>
    </clipPath>
  </defs>
  <g id="Group_1505" data-name="Group 1505" transform="translate(1 1)" clip-path="url(#clip-path)">
    <path id="Path_1423" data-name="Path 1423" d="M4.182,8.306c0-.316-.018-.627,0-.936a20.087,20.087,0,0,1,.633-4.014A8.54,8.54,0,0,1,5.795.963,3.724,3.724,0,0,1,6.449.2a.633.633,0,0,1,.93,0A3.721,3.721,0,0,1,8.04.981,9.274,9.274,0,0,1,9.1,3.738,21.892,21.892,0,0,1,9.68,8.2c0,.031,0,.061-.006.109Z" transform="translate(2.088 0)" fill="#99cdd1"/>
    <path id="Path_1424" data-name="Path 1424" d="M9.7,6.467c-.029.5-.046.97-.087,1.441a19.615,19.615,0,0,1-.6,3.511,9.018,9.018,0,0,1-.87,2.217,4.42,4.42,0,0,1-.627.833.757.757,0,0,1-1.2.006,3.975,3.975,0,0,1-.857-1.282A13.134,13.134,0,0,1,4.5,9.947a23.447,23.447,0,0,1-.34-3.288c0-.06,0-.12,0-.192Z" transform="translate(2.078 3.233)" fill="#99cdd1"/>
    <path id="Path_1425" data-name="Path 1425" d="M7.593,14.414A18.521,18.521,0,0,0,9.36,6.47H14.2a8.869,8.869,0,0,1-1.872,4.812c-1.177,1.509-3.591,3.094-4.736,3.132" transform="translate(3.797 3.235)" fill="#99cdd1"/>
    <path id="Path_1426" data-name="Path 1426" d="M6.648.217a12.706,12.706,0,0,0-1.356,3.9A24.182,24.182,0,0,0,4.852,8.2H0A8.86,8.86,0,0,1,2.076,3.142,9,9,0,0,1,6.648.217" transform="translate(0.001 0.109)" fill="#99cdd1"/>
    <path id="Path_1427" data-name="Path 1427" d="M14.208,8.2H9.371A18.6,18.6,0,0,0,7.583.221,8.95,8.95,0,0,1,11.9,2.876,8.9,8.9,0,0,1,14.208,8.2" transform="translate(3.792 0.111)" fill="#99cdd1"/>
    <path id="Path_1428" data-name="Path 1428" d="M0,6.467H4.839a18.594,18.594,0,0,0,1.785,7.976A9.038,9.038,0,0,1,0,6.467" transform="translate(0 3.233)" fill="#99cdd1"/>
  </g>
  <rect id="Rectangle_1419" data-name="Rectangle 1419" width="20" height="20" fill="none"/>
</svg>
