<svg xmlns="http://www.w3.org/2000/svg" xmlns:xlink="http://www.w3.org/1999/xlink" width="80" height="79.995" viewBox="0 0 80 79.995">
  <defs>
    <clipPath id="clip-path">
      <rect id="Rectangle_1412" data-name="Rectangle 1412" width="80" height="79.995" fill="#fff"/>
    </clipPath>
  </defs>
  <g id="Group_1707" data-name="Group 1707" transform="translate(0 0)">
    <g id="Group_1706" data-name="Group 1706" transform="translate(0 0)" clip-path="url(#clip-path)">
      <path id="Path_1607" data-name="Path 1607" d="M36.877,0h6.249a2.133,2.133,0,0,0,.407.151c1.694.266,3.407.428,5.078.8a39.224,39.224,0,0,1,22.308,13.7,38.945,38.945,0,0,1,8.8,20.739c.059.5.184.993.278,1.489v6.249a5.348,5.348,0,0,0-.16.567c-.346,2-.569,4.019-1.045,5.984A38.948,38.948,0,0,1,70.3,66.08,39.839,39.839,0,0,1,35.322,79.711,38.536,38.536,0,0,1,25,77.075,39.574,39.574,0,0,1,5.322,59.892,39.246,39.246,0,0,1,.36,34.635,38.684,38.684,0,0,1,4.692,21.2,40.055,40.055,0,0,1,35.381.275c.5-.056,1-.181,1.5-.275M15.332,25.454c.134,1,.212,2.019.409,3.009a30.515,30.515,0,0,0,3.9,9.471,59.6,59.6,0,0,0,7.108,9.574A67.531,67.531,0,0,0,40.866,59.621,33.485,33.485,0,0,0,51,64.148a13.2,13.2,0,0,0,5.878.214,6.76,6.76,0,0,0,5.233-4.1c.758-1.852,1.565-3.685,2.3-5.546a2.355,2.355,0,0,0-1.052-3.031c-.487-.3-.988-.581-1.482-.866-2.388-1.379-4.772-2.765-7.165-4.132a2.415,2.415,0,0,0-3.454.84c-.129.2-.247.4-.381.588a6.981,6.981,0,0,1-3.548,2.809,6.841,6.841,0,0,1-6.5-1.075,51.923,51.923,0,0,1-7.188-6.581c-1.292-1.426-2.562-2.88-3.706-4.424a6.729,6.729,0,0,1,.88-8.819,21.259,21.259,0,0,1,1.8-1.367,2.413,2.413,0,0,0,.776-3.238q-2.506-4.412-5.078-8.781a2.293,2.293,0,0,0-2.955-1.073c-2.193.882-4.362,1.824-6.518,2.8A4.359,4.359,0,0,0,17.5,19.409a8.873,8.873,0,0,0-2.165,6.045" transform="translate(0 0.001)" fill="#fff"/>
    </g>
  </g>
</svg>
